<svg style="position: absolute; width: 0; height: 0; overflow: hidden;" version="1.1" xmlns="http://www.w3.org/2000/svg">
<defs>
<symbol id="icon-default" viewBox="0 0 26 28">
<path d="M23.156 16.406c0.953 0.547 1.281 1.781 0.734 2.734l-1 1.719c-0.547 0.953-1.781 1.281-2.734 0.734l-4.156-2.391v4.797c0 1.094-0.906 2-2 2h-2c-1.094 0-2-0.906-2-2v-4.797l-4.156 2.391c-0.953 0.547-2.187 0.219-2.734-0.734l-1-1.719c-0.547-0.953-0.219-2.188 0.734-2.734l4.156-2.406-4.156-2.406c-0.953-0.547-1.281-1.781-0.734-2.734l1-1.719c0.547-0.953 1.781-1.281 2.734-0.734l4.156 2.391v-4.797c0-1.094 0.906-2 2-2h2c1.094 0 2 0.906 2 2v4.797l4.156-2.391c0.953-0.547 2.188-0.219 2.734 0.734l1 1.719c0.547 0.953 0.219 2.188-0.734 2.734l-4.156 2.406z"/>
</symbol>
<symbol id="icon-book" viewBox="0 0 47 48">
<g fill-rule="nonzero" fill="none"><path d="M46.777 23.769c0 12.986-10.472 23.514-23.389 23.514S0 36.755 0 23.769C0 10.782 10.471.254 23.388.254c12.917 0 23.389 10.528 23.389 23.515" fill="#BCCBD3"/><path d="M37.673 12.639H9.103a.716.716 0 0 0-.714.718V34.9c0 .397.32.718.714.718H19.3c.681 0 1.347.31 1.726.88a2.83 2.83 0 0 0 4.727-.001c.379-.57 1.044-.879 1.726-.879h10.195a.716.716 0 0 0 .715-.718V13.357a.716.716 0 0 0-.715-.718" fill="#C0272D"/><path d="M10.532 20.538v12.926H21.96c.789 0 1.428.643 1.428 1.436 0-.793.64-1.436 1.429-1.436h11.428V20.538H10.532z" fill="#BCCBD3"/><path d="M25.53 9.767a2.149 2.149 0 0 0-2.142 2.154c0-1.19-.959-2.154-2.142-2.154H10.532v22.26H21.96c.789 0 1.428.643 1.428 1.437 0-.794.64-1.436 1.429-1.436h11.428V9.767H25.53z" fill="#FFF"/><path fill="#196CAB" d="M13.389 16.947h2.856v-5.026H13.39z"/><path d="M21.246 19.46h-7.857a.359.359 0 0 1 0-.718h7.857c.197 0 .356.161.356.36 0 .198-.16.359-.356.359m0-2.154h-3.144a.358.358 0 0 1-.357-.36c0-.198.16-.359.357-.359h3.144c.197 0 .356.161.356.36 0 .198-.16.359-.356.359m0-2.155h-3.144a.358.358 0 0 1-.357-.359c0-.198.16-.359.357-.359h3.144c.197 0 .356.16.356.36 0 .198-.16.358-.356.358m0-2.154h-3.144a.358.358 0 0 1-.357-.359c0-.198.16-.359.357-.359h3.144c.197 0 .356.16.356.36 0 .197-.16.358-.356.358m0 8.617h-7.857a.359.359 0 0 1 0-.718h7.857c.197 0 .356.161.356.36 0 .197-.16.358-.356.358m0 2.155h-7.857a.359.359 0 0 1 0-.718h7.857c.197 0 .356.16.356.359 0 .198-.16.358-.356.358m0 2.155h-7.857a.359.359 0 0 1 0-.718h7.857c.197 0 .356.16.356.359 0 .198-.16.359-.356.359m0 2.154h-7.857a.359.359 0 0 1 0-.718h7.857c.197 0 .356.16.356.359 0 .198-.16.359-.356.359m0 2.154h-7.857a.359.359 0 0 1 0-.718h7.857c.197 0 .356.16.356.36 0 .197-.16.358-.356.358M33.388 19.46H25.53a.359.359 0 1 1 0-.718h7.857c.197 0 .357.161.357.36 0 .198-.16.359-.357.359m.001 2.154H25.53a.358.358 0 0 1-.357-.359c0-.198.16-.359.357-.359h7.857a.359.359 0 0 1 0 .718m.001-6.463H25.53a.358.358 0 0 1-.357-.359c0-.198.16-.359.357-.359h7.857c.197 0 .357.16.357.36 0 .198-.16.358-.357.358m.001-2.154H25.53a.358.358 0 0 1-.357-.359c0-.198.16-.359.357-.359h7.857c.197 0 .357.16.357.36 0 .197-.16.358-.357.358m.001 4.309H25.53a.358.358 0 0 1-.357-.36c0-.198.16-.359.357-.359h7.857c.197 0 .357.161.357.36 0 .198-.16.359-.357.359m.001 6.463H25.53a.358.358 0 0 1-.357-.36c0-.198.16-.359.357-.359h7.857a.359.359 0 0 1 0 .718m.001 2.155H25.53a.358.358 0 0 1-.357-.36c0-.198.16-.358.357-.358h7.857a.358.358 0 1 1 0 .718m.001 2.154H25.53a.358.358 0 0 1-.357-.359c0-.198.16-.36.357-.36h7.857a.36.36 0 0 1 0 .719m.001 2.154H25.53a.358.358 0 0 1-.357-.359c0-.198.16-.359.357-.359h7.857c.197 0 .357.16.357.36 0 .197-.16.358-.357.358" fill="#036"/></g>
</symbol>
<symbol id="icon-search" viewBox="0 0 26 28">
<path d="M18 13c0-3.859-3.141-7-7-7s-7 3.141-7 7 3.141 7 7 7 7-3.141 7-7zM26 26c0 1.094-0.906 2-2 2-0.531 0-1.047-0.219-1.406-0.594l-5.359-5.344c-1.828 1.266-4.016 1.937-6.234 1.937-6.078 0-11-4.922-11-11s4.922-11 11-11 11 4.922 11 11c0 2.219-0.672 4.406-1.937 6.234l5.359 5.359c0.359 0.359 0.578 0.875 0.578 1.406z"/>
</symbol>
<symbol id="icon-cancel-rect" viewBox="0 0 28 28">
<path d="M18.359 20.641l2.281-2.281c0.203-0.203 0.203-0.516 0-0.719l-3.641-3.641 3.641-3.641c0.203-0.203 0.203-0.516 0-0.719l-2.281-2.281c-0.203-0.203-0.516-0.203-0.719 0l-3.641 3.641-3.641-3.641c-0.203-0.203-0.516-0.203-0.719 0l-2.281 2.281c-0.203 0.203-0.203 0.516 0 0.719l3.641 3.641-3.641 3.641c-0.203 0.203-0.203 0.516 0 0.719l2.281 2.281c0.203 0.203 0.516 0.203 0.719 0l3.641-3.641 3.641 3.641c0.203 0.203 0.516 0.203 0.719 0zM28 4.5v19c0 1.375-1.125 2.5-2.5 2.5h-23c-1.375 0-2.5-1.125-2.5-2.5v-19c0-1.375 1.125-2.5 2.5-2.5h23c1.375 0 2.5 1.125 2.5 2.5z"/>
</symbol>
<symbol id="icon-chevron-right" viewBox="0 0 19 28">
<path d="M17.297 13.703l-11.594 11.594c-0.391 0.391-1.016 0.391-1.406 0l-2.594-2.594c-0.391-0.391-0.391-1.016 0-1.406l8.297-8.297-8.297-8.297c-0.391-0.391-0.391-1.016 0-1.406l2.594-2.594c0.391-0.391 1.016-0.391 1.406 0l11.594 11.594c0.391 0.391 0.391 1.016 0 1.406z"/>
</symbol>
<symbol id="icon-chevron-left" viewBox="0 0 21 28">
<path d="M18.297 4.703l-8.297 8.297 8.297 8.297c0.391 0.391 0.391 1.016 0 1.406l-2.594 2.594c-0.391 0.391-1.016 0.391-1.406 0l-11.594-11.594c-0.391-0.391-0.391-1.016 0-1.406l11.594-11.594c0.391-0.391 1.016-0.391 1.406 0l2.594 2.594c0.391 0.391 0.391 1.016 0 1.406z"/>
</symbol>
<symbol id="icon-chevron-down" viewBox="0 0 28 28">
<path d="M26.297 12.625l-11.594 11.578c-0.391 0.391-1.016 0.391-1.406 0l-11.594-11.578c-0.391-0.391-0.391-1.031 0-1.422l2.594-2.578c0.391-0.391 1.016-0.391 1.406 0l8.297 8.297 8.297-8.297c0.391-0.391 1.016-0.391 1.406 0l2.594 2.578c0.391 0.391 0.391 1.031 0 1.422z"/>
</symbol>
<symbol id="icon-chevron-up" viewBox="0 0 28 28">
<path d="M26.297 20.797l-2.594 2.578c-0.391 0.391-1.016 0.391-1.406 0l-8.297-8.297-8.297 8.297c-0.391 0.391-1.016 0.391-1.406 0l-2.594-2.578c-0.391-0.391-0.391-1.031 0-1.422l11.594-11.578c0.391-0.391 1.016-0.391 1.406 0l11.594 11.578c0.391 0.391 0.391 1.031 0 1.422z"/>
</symbol>
<symbol id="icon-comments" viewBox="0 0 28 28">
<path d="M22 12c0 4.422-4.922 8-11 8-0.953 0-1.875-0.094-2.75-0.25-1.297 0.922-2.766 1.594-4.344 2-0.422 0.109-0.875 0.187-1.344 0.25h-0.047c-0.234 0-0.453-0.187-0.5-0.453v0c-0.063-0.297 0.141-0.484 0.313-0.688 0.609-0.688 1.297-1.297 1.828-2.594-2.531-1.469-4.156-3.734-4.156-6.266 0-4.422 4.922-8 11-8s11 3.578 11 8zM28 16c0 2.547-1.625 4.797-4.156 6.266 0.531 1.297 1.219 1.906 1.828 2.594 0.172 0.203 0.375 0.391 0.313 0.688v0c-0.063 0.281-0.297 0.484-0.547 0.453-0.469-0.063-0.922-0.141-1.344-0.25-1.578-0.406-3.047-1.078-4.344-2-0.875 0.156-1.797 0.25-2.75 0.25-2.828 0-5.422-0.781-7.375-2.063 0.453 0.031 0.922 0.063 1.375 0.063 3.359 0 6.531-0.969 8.953-2.719 2.609-1.906 4.047-4.484 4.047-7.281 0-0.812-0.125-1.609-0.359-2.375 2.641 1.453 4.359 3.766 4.359 6.375z"/>
</symbol>
<symbol id="icon-checkmark" viewBox="0 0 44 40">
  <g id="Page-1" stroke="none" stroke-width="1" fill="none" fill-rule="evenodd">
      <path d="M38.773,19.804 C38.773,30.264 30.247,38.742 19.728,38.742 C9.211,38.742 0.684,30.263 0.684,19.804 C0.684,9.345 9.211,0.866 19.728,0.866 C30.247,0.866 38.773,9.345 38.773,19.804" id="Shape" fill="#FFFFFF" fill-rule="nonzero"/>
      <path d="M19.728,1.547 C9.605,1.547 1.368,9.737 1.368,19.805 C1.368,29.872 9.605,38.063 19.728,38.063 C29.853,38.063 38.089,29.873 38.089,19.805 C38.089,9.737 29.853,1.547 19.729,1.547 M19.729,39.423 C8.85,39.423 -0.001,30.623 -0.001,19.805 C-2.16840434e-19,8.987 8.85,0.186 19.73,0.186 C30.608,0.186 39.458,8.987 39.458,19.805 C39.458,30.622 30.608,39.423 19.729,39.423" id="Shape" fill="#BCCBD3" fill-rule="nonzero"/>
      <path d="M35.533,19.893 C35.483,28.573 28.367,35.57 19.639,35.52 C10.91,35.471 3.874,28.395 3.924,19.715 C3.974,11.035 11.09,4.038 19.819,4.088 C28.547,4.137 35.583,11.213 35.533,19.893" id="Shape" fill="#EDCF09" fill-rule="nonzero"/>
      <polygon id="Shape" fill="#003366" fill-rule="nonzero" points="43.287 4.047 19.567 22.768 7.485 16.292 7.835 19.231 19.566 30.897 43.512 7.085"/>
      <polygon id="Shape" fill="#196CAB" fill-rule="nonzero" points="39.215 0.092 19.33 19.812 11.696 12.2 7.603 16.26 19.319 27.941 43.297 4.162"/>
  </g>
</symbol>
<symbol id="icon-lightbulb" viewBox="0 0 51 60">
  <g stroke="none" stroke-width="1" fill="none" fill-rule="evenodd">
    <path d="M35.997,24.132 C36.23,21.212 34.208,18.108 31.931,16.399 C30.825,15.569 24.073,12.442 24.111,15.415 C24.134,17.125 26.821,16.67 27.977,17.071 C29.497,17.599 30.938,18.609 31.925,19.863 C33.129,21.393 33.131,22.897 33.559,24.689 C33.731,25.409 34.086,26.004 34.955,25.861 C35.899,25.705 35.997,24.908 35.997,24.132 M37.635,33.312 C37.179,33.863 36.825,34.493 36.391,35.043 C35.341,36.37 34.121,37.515 33.438,39.159 C32.685,40.969 33.241,43.378 31.943,44.907 C30.63,46.453 28.277,46.029 26.459,46.039 C24.197,46.051 21.396,46.466 19.203,45.896 C17.41,45.43 16.737,43.891 16.642,42.224 C16.515,39.994 15.814,38.229 14.34,36.527 C12.898,34.861 11.54,33.132 10.532,31.173 C6.647,23.623 10.684,15.164 18.134,11.69 C24.735,8.613 32.694,10.703 37.189,16.17 C38.915,18.271 40.094,20.644 40.428,23.368 C40.6680364,25.3802851 40.4516809,27.420794 39.795,29.338 C39.308,30.768 38.194,31.905 37.635,33.312" id="Shape" fill="#EDCF09" fill-rule="nonzero"/>
    <path d="M24.744,52.132 C26.714,52.132 28.684,52.126 30.654,52.136 C31.426,52.14 31.874,52.582 31.858,53.277 C31.846,53.787 31.531,54.193 31.018,54.298 C30.7393869,54.349562 30.4562998,54.373013 30.173,54.368 C26.617,54.373 23.062,54.373 19.506,54.371 C19.239,54.371 18.971,54.356 18.706,54.329 C18.004,54.257 17.566,53.793 17.606,53.174 C17.644,52.564 18.136,52.137 18.835,52.134 C20.805,52.128 22.775,52.132 24.745,52.132 L24.744,52.132 Z M24.747,48.733 C22.745,48.733 20.742,48.74 18.739,48.729 C18.085,48.725 17.625,48.264 17.609,47.653 C17.593,47.038 18.033,46.588 18.699,46.546 C18.899,46.533 19.099,46.534 19.299,46.534 L29.513,46.535 C29.947,46.535 30.382,46.52 30.814,46.544 C31.48,46.581 31.871,47.024 31.85,47.683 C31.832,48.273 31.38,48.725 30.755,48.727 C28.753,48.737 26.75,48.73 24.747,48.73 L24.747,48.733 L24.747,48.733 Z M24.744,49.345 C26.731,49.345 28.718,49.339 30.704,49.347 C31.294,49.35 31.711,49.667 31.824,50.148 C31.946,50.674 31.736,51.163 31.275,51.406 C30.983,51.56 30.659,51.536 30.344,51.536 C26.987,51.539 23.631,51.539 20.274,51.539 C19.757,51.539 19.239,51.553 18.722,51.529 C18.07,51.496 17.596,51.012 17.606,50.431 C17.616,49.825 18.076,49.381 18.733,49.345 C18.833,49.34 18.933,49.342 19.033,49.342 L24.744,49.342 L24.744,49.345 L24.744,49.345 Z M24.748,57.16 C23.098,57.16 21.446,57.168 19.796,57.158 C18.976,57.153 18.459,56.623 18.549,55.899 C18.604,55.454 18.855,55.156 19.298,55.014 C19.573,54.926 19.855,54.922 20.138,54.922 L29.493,54.925 C29.83,54.925 30.164,54.941 30.454,55.132 C30.854,55.396 31.054,55.922 30.925,56.336 C30.778,56.808 30.335,57.149 29.801,57.153 C28.233,57.166 26.666,57.163 25.099,57.166 L24.749,57.166 L24.749,57.161 L24.748,57.16 Z M24.746,59.91 C23.644,59.91 22.543,59.918 21.442,59.906 C20.896,59.901 20.47,59.672 20.276,59.144 C20.111,58.697 20.24,58.306 20.584,57.983 C20.826,57.755 21.127,57.669 21.454,57.669 C23.639,57.667 25.825,57.662 28.01,57.671 C28.76,57.675 29.264,58.145 29.26,58.793 C29.257,59.45 28.774,59.893 27.999,59.903 C26.915,59.918 25.83,59.907 24.746,59.907 L24.746,59.91 L24.746,59.91 Z" id="Shape" fill="#00808C" fill-rule="nonzero"/>
    <path d="M35.997,24.132 C35.997,24.307 36.02,24.555 35.993,24.797 C35.924,25.413 35.413,25.862 34.772,25.895 C34.2006366,25.9125772 33.701784,25.5109478 33.597,24.949 C33.471,24.259 33.468,23.544 33.321,22.859 C32.793,20.397 31.24,18.709 29.038,17.532 C27.9461607,16.9488282 26.7257891,16.6480324 25.488,16.657 C24.678,16.657 24.193,16.258 24.116,15.583 C24.021,14.75 24.461,14.259 25.313,14.257 C30.593,14.246 34.593,17.677 35.753,22.07 C35.923,22.715 36.057,23.381 35.997,24.132" id="Shape" fill="#003366" fill-rule="nonzero"/>
    <path d="M1.869,36.183 C1.51346123,36.1849571 1.19293643,35.9691582 1.061,35.639 C0.979170506,35.42788 0.985493072,35.1927514 1.07855007,34.986334 C1.17160707,34.7799167 1.34361257,34.6194812 1.556,34.541 L4.979,33.242 C5.42239908,33.0714512 5.92067906,33.2876691 6.099,33.728 C6.18077972,33.9392483 6.17431693,34.1744864 6.08106191,34.380926 C5.98780688,34.5873655 5.81556935,34.7477181 5.603,34.826 L2.18,36.126 C2.08065473,36.1637277 1.97526786,36.183043 1.869,36.183" id="Shape" fill="#C0272D" fill-rule="nonzero"/>
    <path d="M11.367,10.247 C11.1401623,10.2476212 10.9220312,10.159723 10.759,10.002 L8.271,7.593 C8.1081252,7.43618681 8.01543376,7.2202749 8.01392775,6.99418574 C8.01242174,6.76809658 8.10222867,6.55096903 8.263,6.392 C8.60110277,6.05769684 9.14401783,6.05370482 9.487,6.383 L11.975,8.793 C12.1373107,8.94991713 12.2296254,9.16556378 12.2311305,9.39131913 C12.2326355,9.61707448 12.1432041,9.83393277 11.983,9.993 C11.8194473,10.1559642 11.5978825,10.2473237 11.367,10.247" id="Path" fill="#C0272D"/>
    <path d="M25.345,5.211 C25.1174413,5.21313165 24.8983571,5.12477354 24.7359484,4.9653655 C24.5735397,4.80595745 24.4811119,4.58855887 24.479,4.361 L24.479,0.85 C24.479,0.381 24.867,0.001 25.345,0.001 C25.823,0.001 26.21,0.381 26.21,0.851 L26.21,4.363 C26.21,4.833 25.823,5.213 25.345,5.213" id="Path" fill="#C0272D"/>
    <path d="M48.698,36.183 C48.5913383,36.1828005 48.4856077,36.1631454 48.386,36.125 L44.963,34.826 C44.7504388,34.7477454 44.5782531,34.5873357 44.4851613,34.3808412 C44.3920696,34.1743467 44.3858856,33.9391001 44.468,33.728 C44.6459,33.287802 45.1438742,33.0715237 45.587,33.242 L49.01,34.541 C49.456,34.711 49.677,35.201 49.505,35.639 C49.3731974,35.9688173 49.0531746,36.1845452 48.698,36.183" id="Path" fill="#C0272D"/>
    <path d="M46.272,21.202 C45.8685904,21.2039099 45.5176819,20.92609 45.427,20.533 C45.379762,20.3111797 45.4231294,20.0796801 45.5474549,19.8899992 C45.6717804,19.7003183 45.8667529,19.5681875 46.089,19.523 L49.64,18.764 C50.103537,18.6612749 50.5632364,18.9513765 50.67,19.414 C50.717238,19.6358203 50.6738706,19.8673199 50.5495451,20.0570008 C50.4252196,20.2466817 50.2302471,20.3788125 50.008,20.424 L46.456,21.182 C46.3955378,21.1951013 46.333865,21.2018049 46.272,21.202" id="Path" fill="#C0272D"/>
    <path d="M39.323,10.247 C39.0919361,10.2477448 38.8700232,10.1567497 38.706,9.994 C38.5453011,9.83472457 38.455651,9.6173564 38.457345,9.3911045 C38.4590391,9.1648526 38.5519341,8.94885123 38.715,8.792 L41.203,6.383 C41.5459822,6.05370482 42.0888972,6.05769684 42.427,6.392 C42.5876411,6.5511031 42.6772686,6.76830689 42.6755744,6.99439648 C42.6738801,7.22048606 42.5810075,7.43632224 42.418,7.593 L39.93,10.002 C39.7672171,10.1594816 39.549492,10.2473608 39.323,10.247" id="Path" fill="#C0272D"/>
    <path d="M4.418,21.203 C4.35580063,21.2028752 4.29378895,21.1961712 4.233,21.183 L0.682,20.424 C0.459752926,20.3788125 0.264780424,20.2466817 0.140454922,20.0570008 C0.0161294194,19.8673199 -0.0272379722,19.6358203 0.02,19.414 C0.126763553,18.9513765 0.586463048,18.6612749 1.05,18.764 L4.6,19.524 C4.82243136,19.5689585 5.01765006,19.7009937 5.14218099,19.8907015 C5.26671191,20.0804092 5.31021423,20.3120365 5.263,20.534 C5.17271853,20.9274876 4.8217078,21.2058038 4.418,21.204" id="Shape" fill="#C0272D" fill-rule="nonzero"/>
</g>
</symbol>
<symbol id="icon-loupe" viewBox="0 0 80 74">
  <g fill="none" fill-rule="evenodd"><path d="M55 55c.072.278.07.328.092.35 5.45 5.47 10.897 10.942 16.365 16.39.206.205.754.341.937.205.906-.675 1.744-1.452 2.606-2.193l-.218-.333c-.149.006-.323-.04-.441.028-1.18.687-2.138.37-3.147-.511-4.63-4.042-9.305-8.026-13.966-12.03-.692-.595-1.387-1.188-2.228-1.906" fill="#036" fill-rule="nonzero"/><path d="M48.833 38c.33.21.576.345.799.513 8.75 6.578 20.875 17.626 29.637 24.188.819.613.921 1.234.45 2.096-1.85 3.387-4.263 6.274-7.204 8.715-.838.695-1.478.65-2.27-.154-7.575-7.68-20.964-18.314-28.592-25.939-.918-.919-.819-1.51-.012-2.4 1.394-1.539 5.087-4.675 6.424-6.269.224-.268.499-.49.767-.75" fill="#036"/><path d="M25.586 4C13.832 3.898 4.084 13.523 4.001 25.315c-.084 11.781 9.44 21.573 21.09 21.685 12.066.115 21.767-9.349 21.908-21.373.14-11.793-9.494-21.52-21.413-21.625" fill="#036" fill-rule="nonzero"/><path d="M50.054 38.136c-.594.75-6.17 7.128-6.845 8.158-.24.367-.586.664-.841.944-.152-.019-.21-.009-.23-.03-1.265-1.382-2.33-.652-3.664.086-9.163 5.075-18.389 5.046-27.124-.757C2.558 40.695-1.094 32.125.282 21.726 1.907 9.458 12.528.248 24.835.006c12.593-.248 23.352 8.412 25.693 20.696.945 4.955.482 9.793-1.485 14.433-.489 1.153-.448 1.894.617 2.543.131.078.21.24.394.459" fill="#036"/><path d="M13.998 41.998C6.7 31.408 6.6 20.783 13.587 10c-4.81 3.833-7.437 8.945-7.58 15.301C5.846 32.317 8.63 37.897 14 42" fill="#EDCF09" fill-rule="nonzero"/><path d="M25.587 4c11.918.105 21.55 9.833 21.412 21.626C46.859 37.65 37.157 47.114 25.09 47c-11.65-.112-21.173-9.905-21.09-21.685C4.084 13.522 13.832 3.897 25.587 4" fill="#EDCF09"/><path d="M55 55.001c.84.72 1.536 1.311 2.228 1.906 4.661 4.004 9.335 7.987 13.967 12.029 1.008.88 1.966 1.199 3.147.512.116-.07.291-.022.44-.03l.218.335c-.862.74-1.7 1.517-2.606 2.192-.183.137-.73 0-.937-.206-5.47-5.447-10.916-10.918-16.365-16.389-.022-.021-.02-.07-.092-.35" fill="#BCCBD3" fill-rule="nonzero"/><path d="M14 41.999c-5.37-4.102-8.152-9.682-7.994-16.698.144-6.356 2.77-11.468 7.582-15.301C6.6 20.783 6.7 31.41 14 42" fill="#C0272D" fill-rule="nonzero"/></g>
</symbol>
<symbol id="icon-design" viewBox="0 0 65 65">
    <g fill-rule="nonzero" fill="none"><path fill="#C0272D" d="M15.988 48.217l2.285 6.083 39.355-39.288-3.554-4.056z"/><path fill="#00808C" d="M9.894 47.457l4.824 2.534 40.123-38.654-4.322-4.69z"/><path d="M9.202 57.498a.919.919 0 0 1-.651-.27l-1.265-1.262a.916.916 0 0 1 0-1.301.923.923 0 0 1 1.303 0l1.265 1.263a.916.916 0 0 1 0 1.3.92.92 0 0 1-.652.27m28.052-28.985a.919.919 0 0 1-.651-1.57l16.934-16.906a.923.923 0 0 1 1.303 0c.36.359.36.941 0 1.3L37.906 28.244a.919.919 0 0 1-.65.269M15.63 50.1a.919.919 0 0 1-.651-1.57l11.487-11.468a.922.922 0 0 1 1.304 0c.36.359.36.941 0 1.3L16.282 49.831a.919.919 0 0 1-.652.269" fill="#036"/><path d="M7.408 58.781a1.2 1.2 0 0 1-.851-.354 1.196 1.196 0 0 1-.286-1.254L9.82 47.09a.919.919 0 0 1 .218-.345L23.002 33.8a.923.923 0 0 1 1.304 0c.36.359.36.941 0 1.3L11.488 47.898l-3.04 8.64 8.654-3.035 13.014-12.994a.92.92 0 1 1 1.304 1.301L18.257 54.952a.927.927 0 0 1-.346.217L7.812 58.712a1.24 1.24 0 0 1-.404.07M40.9 31.963a.919.919 0 0 1-.65-1.57l17.958-17.93a2.683 2.683 0 0 0 0-3.794l-1.814-1.81a2.671 2.671 0 0 0-1.9-.786 2.67 2.67 0 0 0-1.9.786L34.66 24.765a.92.92 0 1 1-1.303-1.3L51.29 5.557a4.504 4.504 0 0 1 3.203-1.325 4.5 4.5 0 0 1 3.203 1.325l1.814 1.81a4.522 4.522 0 0 1 0 6.396l-17.96 17.93a.92.92 0 0 1-.65.27" fill="#036"/><path d="M17.367 54.738a.922.922 0 0 1-.864-.598l-1.588-4.243-4.35-1.602a.92.92 0 0 1 .638-1.726l4.746 1.748c.252.093.45.29.545.541l1.736 4.638a.92.92 0 0 1-.863 1.242" fill="#036"/><path d="M53.148 64.127a.922.922 0 0 1-.652-.27L1.158 12.602a.92.92 0 0 1 0-1.301l9.906-9.891a.924.924 0 0 1 1.304 0l51.338 51.256c.36.359.36.942 0 1.3L53.8 63.858a.923.923 0 0 1-.651.27" fill="#EDCF09"/><path d="M11.716 2.028a.036.036 0 0 0-.024.01l-9.906 9.89a.033.033 0 0 0 0 .047L53.125 63.23l.023.01a.033.033 0 0 0 .024-.01l9.906-9.89a.033.033 0 0 0 0-.047L11.739 2.037a.036.036 0 0 0-.023-.009m41.432 62.986c-.484 0-.938-.188-1.28-.53L.529 13.23a1.807 1.807 0 0 1 0-2.555L10.436.783c.343-.341.797-.53 1.28-.53.476 0 .943.194 1.28.53l51.338 51.256c.706.704.706 1.85 0 2.555l-9.906 9.89c-.343.343-.797.53-1.28.53" fill="#036"/><path d="M7.044 18.097a.92.92 0 0 1-.652-1.57l3.302-3.297a.923.923 0 0 1 1.574.65c0 .236-.09.471-.27.65l-3.303 3.298a.919.919 0 0 1-.651.27m5.08 5.072a.919.919 0 0 1-.651-1.571l5.397-5.39a.923.923 0 0 1 1.573.651c0 .236-.09.471-.27.65l-5.397 5.39a.919.919 0 0 1-.652.27m5.08 5.071a.92.92 0 0 1-.651-1.57l3.302-3.297a.923.923 0 0 1 1.573.65c0 .236-.09.471-.27.651l-3.302 3.297a.919.919 0 0 1-.652.27m5.081 5.071a.92.92 0 0 1-.652-1.57l3.302-3.297a.923.923 0 0 1 1.574.65c0 .236-.09.472-.27.651l-3.303 3.297a.919.919 0 0 1-.651.27m10.16 10.144a.919.919 0 0 1-.65-1.57l3.3-3.297a.922.922 0 0 1 1.574.65c0 .235-.09.47-.27.65l-3.302 3.297a.92.92 0 0 1-.652.27m5.081 5.072a.92.92 0 0 1-.652-1.57l3.302-3.297a.923.923 0 0 1 1.573.65c0 .236-.09.471-.27.65l-3.302 3.298a.92.92 0 0 1-.651.269m5.08 5.072a.92.92 0 0 1-.651-1.57l5.397-5.39a.922.922 0 0 1 1.304 1.301l-5.398 5.39a.92.92 0 0 1-.652.27m-15.27-15.245a.919.919 0 0 1-.651-1.57l5.397-5.39a.923.923 0 0 1 1.574.651c0 .235-.09.47-.27.65l-5.398 5.39a.919.919 0 0 1-.652.27m20.35 20.315a.919.919 0 0 1-.651-1.57l3.302-3.297a.922.922 0 0 1 1.573.65c0 .236-.09.471-.27.65l-3.302 3.298a.919.919 0 0 1-.652.27m9.868-43.709a.919.919 0 0 1-.652-.27l-6.582-6.57a.917.917 0 0 1 0-1.301.923.923 0 0 1 1.303 0l6.582 6.57a.916.916 0 0 1 0 1.302.919.919 0 0 1-.651.27" fill="#036"/></g>
</symbol>
<symbol id="icon-development" viewBox="0 0 68 68">
  <g fill-rule="nonzero" fill="none"><path d="M51.432 40.392l-8.094 8.045 2.64 2.788 10.79-10.805L45.95 29.603l-2.708 2.648 8.19 8.14v.001zM21.996 29.489L11.112 40.357 21.84 51.05l3.042-2.736-8.07-8.024 8.005-7.966-2.82-2.835h-.001zm15.319-4.71l-10.616 28.67 3.987 1.46 10.616-28.67-3.987-1.46zM4.355 12.684h59.331V4.34H4.356v8.345l-.001-.001zM0 64.813V3.188C.631 1.694 1.689.626 3.188 0h61.624C66.31.628 67.37 1.692 68 3.188v61.625c-.627 1.497-1.692 2.557-3.188 3.187H3.188C1.692 67.37.627 66.31 0 64.813z" fill="#036"/><path d="M3.188 0C1.688.626.63 1.694 0 3.188V0h3.188zM68 3.188C67.37 1.692 66.31.627 64.812 0H68v3.188zM0 64.813C.627 66.31 1.692 67.37 3.188 68H0v-3.188.001zM64.813 68c1.495-.63 2.56-1.69 3.187-3.188V68h-3.188.001zM19.096 10.618a2.14 2.14 0 0 0 2.145-2.056c.038-1.186-.965-2.201-2.153-2.18-1.137.022-2.084.988-2.08 2.122.002 1.135.955 2.1 2.088 2.114zm-5.18-4.235c-1.128-.059-2.141.846-2.219 1.982-.077 1.124.816 2.154 1.947 2.248 1.181.099 2.24-.849 2.284-2.043.042-1.133-.875-2.128-2.013-2.187h.001zm-3.3 2.099c-.008-1.137-.963-2.09-2.101-2.1-1.134-.008-2.106.935-2.133 2.07-.029 1.185.987 2.197 2.169 2.165a2.14 2.14 0 0 0 2.066-2.135h-.001zm-6.26 4.202h59.33V4.34H4.356v8.345-.001z" fill="#FFF"/><path d="M10.617 8.482a2.14 2.14 0 0 1-2.066 2.135c-1.183.032-2.198-.98-2.169-2.164.027-1.136 1-2.08 2.133-2.07 1.138.009 2.093.962 2.102 2.099" fill="#C0272D"/><path d="M13.915 6.383c1.138.059 2.054 1.054 2.013 2.187-.043 1.194-1.102 2.142-2.284 2.044-1.131-.095-2.024-1.126-1.947-2.25.078-1.134 1.09-2.04 2.218-1.981" fill="#EDCF09"/><path d="M19.096 10.618c-1.133-.014-2.086-.979-2.089-2.114-.003-1.134.944-2.1 2.081-2.121 1.188-.022 2.19.993 2.153 2.179a2.14 2.14 0 0 1-2.145 2.056" fill="#00808C"/><path fill="#EDCF09" d="M37.315 24.779l3.987 1.46-10.616 28.67-3.988-1.46 10.617-28.67"/><path d="M21.996 29.49l2.821 2.834-8.005 7.966 8.07 8.024-3.042 2.736-10.728-10.693c3.538-3.532 7.157-7.145 10.884-10.868M51.432 40.4l-8.142-8.188 2.723-2.632 10.754 10.88-10.852 10.742-2.623-2.804 8.14-7.998" fill="#BCCBD3"/></g>
</symbol>
<symbol id="icon-laws" viewBox="0 0 84 60">
  <g fill-rule="nonzero" fill="none"><path d="M1.805 47.164c4.818-.853 9.032-1.486 13.174-2.431.773-.177 1.9-1.785 1.72-2.405-.249-.86-1.662-2.072-2.436-1.98a126.118 126.118 0 0 0-12.81 2.23c-.691.156-1.547 1.766-1.445 2.596.102.82 1.32 1.504 1.797 1.99m1.192-22.659c-.557 1.105-1.244 1.937-1.35 2.837-.098.828.152 2.162.727 2.525a201.359 201.359 0 0 0 11.688 6.817c.531.288 1.884-.094 2.286-.606.493-.63.796-2.309.477-2.529-4.182-2.89-8.49-5.602-13.828-9.044m28.91 35.332c5.789 0 11.58.06 17.367-.04 1.603-.027 3.199-.533 4.797-.819-.67-1.559-1.136-3.25-2.056-4.644-1.28-1.939-3.234-3.436-2.942-6.199.044-.415-1.638-1.445-2.53-1.454-9.617-.108-19.237-.025-28.855-.102-2-.016-2.658.807-2.765 2.64-.057.988-.327 2.083-.86 2.9-.952 1.46-2.258 2.689-3.25 4.127-.514.745-.674 1.731-.993 2.609.95.326 1.897.924 2.851.937 6.41.084 12.824.043 19.237.045m13.414-29.89c1.681.91 2.857 1.526 4.014 2.175 7.682 4.304 15.33 8.666 23.048 12.904 4.78 2.623 8.777 1.673 10.657-2.318 1.686-3.583-.223-7.23-5.057-9.23-8.713-3.605-17.477-7.086-26.204-10.66-.77-.316-2.08-1.24-2.02-1.37.89-1.929 1.566-4.298 3.125-5.476 1.384-1.046 2.838-1.638 3.005-3.547.19-2.189-1.314-3.109-3.004-3.885C47.553 6.09 42.213 3.653 36.9 1.165c-1.497-.701-3.125-1.115-4.084.38-.762 1.19-.875 2.826-1.134 4.288-.17.963.2 2.094-.167 2.936-2.373 5.44-4.815 10.852-7.401 16.193-.556 1.146-1.653 2.182-2.747 2.892-2.886 1.87-3.058 5.347-.033 6.799a409.297 409.297 0 0 0 17.755 8.019c.885.374 2.6-.028 3.307-.71.82-.792 1.672-2.708 1.26-3.409-2.041-3.463.934-5.534 1.667-8.606" fill="#036"/><path d="M27.618 31.152l.958.17c.493-.447 1.183-.801 1.448-1.356 3.049-6.385 6.068-12.786 8.972-19.237.237-.527-.435-1.458-.684-2.2-.638.325-1.296.62-1.902.997-.194.12-.26.45-.374.69-2.835 5.995-5.714 11.97-8.448 18.01-.365.808.002 1.943.03 2.926m17.704-1.204c-.733 3.071-3.709 5.143-1.668 8.606.413.7-.44 2.616-1.26 3.408-.706.682-2.421 1.083-3.306.71a410.332 410.332 0 0 1-17.755-8.019c-3.026-1.452-2.853-4.929.032-6.799 1.095-.71 2.192-1.746 2.748-2.892 2.586-5.342 5.028-10.754 7.401-16.193.368-.842-.004-1.974.167-2.936.26-1.462.372-3.097 1.134-4.287.959-1.496 2.587-1.083 4.084-.382C42.213 3.653 47.553 6.09 52.886 8.54c1.69.776 3.194 1.696 3.004 3.885-.167 1.909-1.62 2.501-3.006 3.547-1.558 1.177-2.234 3.547-3.124 5.475-.06.132 1.25 1.055 2.02 1.37 8.727 3.575 17.491 7.056 26.204 10.66 4.834 2.001 6.743 5.648 5.057 9.23-1.88 3.993-5.877 4.942-10.657 2.318-7.719-4.236-15.366-8.6-23.048-12.903-1.157-.649-2.333-1.265-4.014-2.174" fill="#036"/><path d="M31.907 59.836c-6.412 0-12.825.04-19.236-.044-.954-.013-1.901-.61-2.85-.937.318-.877.478-1.864.991-2.609.993-1.438 2.3-2.667 3.251-4.127.533-.816.803-1.912.86-2.9.107-1.833.766-2.656 2.765-2.64 9.618.077 19.238-.006 28.855.102.892.01 2.574 1.04 2.53 1.454-.292 2.764 1.661 4.26 2.941 6.2.922 1.394 1.388 3.085 2.058 4.643-1.6.287-3.195.792-4.799.82-5.786.1-11.577.039-17.366.038" fill="#00808C"/><path d="M2.997 24.505c5.339 3.442 9.645 6.155 13.828 9.045.319.22.016 1.898-.478 2.528-.4.513-1.753.894-2.285.607a201.359 201.359 0 0 1-11.688-6.817c-.575-.363-.824-1.698-.727-2.526.106-.9.793-1.731 1.35-2.837M1.805 47.164c-.477-.486-1.695-1.17-1.797-1.99-.102-.83.754-2.44 1.445-2.596a126.118 126.118 0 0 1 12.81-2.23c.774-.092 2.187 1.12 2.437 1.98.18.62-.948 2.229-1.72 2.405-4.143.945-8.357 1.579-13.175 2.431" fill="#C0272D"/><path d="M27.618 31.152c-.028-.983-.395-2.118-.03-2.925 2.734-6.04 5.613-12.016 8.448-18.01.113-.24.18-.57.374-.691.607-.376 1.264-.671 1.902-.998.25.743.92 1.674.684 2.2-2.903 6.452-5.923 12.853-8.972 19.239-.265.554-.955.908-1.448 1.354l-.958-.169" fill="#FFF"/></g>
</symbol>
<symbol id="icon-info" viewBox="0 0 24 28">
<path d="M12 2c6.625 0 12 5.375 12 12s-5.375 12-12 12-12-5.375-12-12 5.375-12 12-12zM14 21.484v-2.969c0-0.281-0.219-0.516-0.484-0.516h-3c-0.281 0-0.516 0.234-0.516 0.516v2.969c0 0.281 0.234 0.516 0.516 0.516h3c0.266 0 0.484-0.234 0.484-0.516zM13.969 16.109l0.281-9.703c0-0.109-0.047-0.219-0.156-0.281-0.094-0.078-0.234-0.125-0.375-0.125h-3.437c-0.141 0-0.281 0.047-0.375 0.125-0.109 0.063-0.156 0.172-0.156 0.281l0.266 9.703c0 0.219 0.234 0.391 0.531 0.391h2.891c0.281 0 0.516-0.172 0.531-0.391z"/>
</symbol>
<symbol id="icon-warning" viewBox="0 0 28 28">
<path d="M16 21.484v-2.969c0-0.281-0.219-0.516-0.5-0.516h-3c-0.281 0-0.5 0.234-0.5 0.516v2.969c0 0.281 0.219 0.516 0.5 0.516h3c0.281 0 0.5-0.234 0.5-0.516zM15.969 15.641l0.281-7.172c0-0.094-0.047-0.219-0.156-0.297-0.094-0.078-0.234-0.172-0.375-0.172h-3.437c-0.141 0-0.281 0.094-0.375 0.172-0.109 0.078-0.156 0.234-0.156 0.328l0.266 7.141c0 0.203 0.234 0.359 0.531 0.359h2.891c0.281 0 0.516-0.156 0.531-0.359zM15.75 1.047l12 22c0.344 0.609 0.328 1.359-0.031 1.969s-1.016 0.984-1.719 0.984h-24c-0.703 0-1.359-0.375-1.719-0.984s-0.375-1.359-0.031-1.969l12-22c0.344-0.641 1.016-1.047 1.75-1.047s1.406 0.406 1.75 1.047z"/>
</symbol>
<symbol id="icon-audio-description" viewBox="0 0 36 28">
<path d="M7.875 15.531h2.672l-0.016-4.141zM23.906 13.984c0-1.734-1-3.016-3.078-3.016h-0.844v6.062h0.812c1.953 0 3.109-1.422 3.109-3.047zM14.938 8.094l0.016 11.813c0 0.297-0.234 0.531-0.516 0.531h-3.375c-0.281 0-0.516-0.234-0.516-0.531v-0.969h-4.547l-0.859 1.266c-0.094 0.141-0.266 0.234-0.438 0.234h-4.172c-0.438 0-0.688-0.484-0.422-0.828l8.687-11.828c0.094-0.141 0.25-0.219 0.422-0.219h5.187c0.297 0 0.531 0.234 0.531 0.531zM27.859 13.984c0 4.109-3 6.453-7.031 6.453h-4.219c-0.297 0-0.531-0.234-0.531-0.531v-11.813c0-0.297 0.234-0.531 0.531-0.531h4.188c4.062 0 7.063 2.312 7.063 6.422zM30.297 14c0 0 0.063 4.062-2.312 6.453h-0.797c2.125-2.531 2.172-6.469 2.172-6.469s0.031-3.094-2.109-6.406h0.672c2.312 2.641 2.375 6.422 2.375 6.422zM33.172 14c0 0 0.063 4.062-2.328 6.453h-0.797c2.125-2.531 2.172-6.469 2.172-6.469s0.031-3.094-2.094-6.406h0.672c2.312 2.641 2.375 6.422 2.375 6.422zM36 14c0 0 0.063 4.062-2.312 6.453h-0.797c2.109-2.531 2.156-6.469 2.156-6.469s0.031-3.094-2.094-6.406h0.672c2.312 2.641 2.375 6.422 2.375 6.422z"/>
</symbol>
<symbol id="icon-arrow-left" viewBox="0 0 25 28">
<path d="M24 14v2c0 1.062-0.703 2-1.828 2h-11l4.578 4.594c0.375 0.359 0.594 0.875 0.594 1.406s-0.219 1.047-0.594 1.406l-1.172 1.188c-0.359 0.359-0.875 0.578-1.406 0.578s-1.047-0.219-1.422-0.578l-10.172-10.187c-0.359-0.359-0.578-0.875-0.578-1.406s0.219-1.047 0.578-1.422l10.172-10.156c0.375-0.375 0.891-0.594 1.422-0.594s1.031 0.219 1.406 0.594l1.172 1.156c0.375 0.375 0.594 0.891 0.594 1.422s-0.219 1.047-0.594 1.422l-4.578 4.578h11c1.125 0 1.828 0.938 1.828 2z"/>
</symbol>
<symbol id="icon-arrow-right" viewBox="0 0 23 28">
<path d="M23 15c0 0.531-0.203 1.047-0.578 1.422l-10.172 10.172c-0.375 0.359-0.891 0.578-1.422 0.578s-1.031-0.219-1.406-0.578l-1.172-1.172c-0.375-0.375-0.594-0.891-0.594-1.422s0.219-1.047 0.594-1.422l4.578-4.578h-11c-1.125 0-1.828-0.938-1.828-2v-2c0-1.062 0.703-2 1.828-2h11l-4.578-4.594c-0.375-0.359-0.594-0.875-0.594-1.406s0.219-1.047 0.594-1.406l1.172-1.172c0.375-0.375 0.875-0.594 1.406-0.594s1.047 0.219 1.422 0.594l10.172 10.172c0.375 0.359 0.578 0.875 0.578 1.406z"/>
</symbol>
<symbol id="icon-arrow-up" viewBox="0 0 26 28">
<path d="M25.172 15.172c0 0.531-0.219 1.031-0.578 1.406l-1.172 1.172c-0.375 0.375-0.891 0.594-1.422 0.594s-1.047-0.219-1.406-0.594l-4.594-4.578v11c0 1.125-0.938 1.828-2 1.828h-2c-1.062 0-2-0.703-2-1.828v-11l-4.594 4.578c-0.359 0.375-0.875 0.594-1.406 0.594s-1.047-0.219-1.406-0.594l-1.172-1.172c-0.375-0.375-0.594-0.875-0.594-1.406s0.219-1.047 0.594-1.422l10.172-10.172c0.359-0.375 0.875-0.578 1.406-0.578s1.047 0.203 1.422 0.578l10.172 10.172c0.359 0.375 0.578 0.891 0.578 1.422z"/>
</symbol>
<symbol id="icon-arrow-down" viewBox="0 0 26 28">
<path d="M25.172 13c0 0.531-0.219 1.047-0.578 1.406l-10.172 10.187c-0.375 0.359-0.891 0.578-1.422 0.578s-1.047-0.219-1.406-0.578l-10.172-10.187c-0.375-0.359-0.594-0.875-0.594-1.406s0.219-1.047 0.594-1.422l1.156-1.172c0.375-0.359 0.891-0.578 1.422-0.578s1.047 0.219 1.406 0.578l4.594 4.594v-11c0-1.094 0.906-2 2-2h2c1.094 0 2 0.906 2 2v11l4.594-4.594c0.359-0.359 0.875-0.578 1.406-0.578s1.047 0.219 1.422 0.578l1.172 1.172c0.359 0.375 0.578 0.891 0.578 1.422z"/>
</symbol>
<symbol id="icon-check-circle" viewBox="0 0 24 28">
<path d="M20.062 11.469c0-0.266-0.094-0.531-0.281-0.719l-1.422-1.406c-0.187-0.187-0.438-0.297-0.703-0.297s-0.516 0.109-0.703 0.297l-6.375 6.359-3.531-3.531c-0.187-0.187-0.438-0.297-0.703-0.297s-0.516 0.109-0.703 0.297l-1.422 1.406c-0.187 0.187-0.281 0.453-0.281 0.719s0.094 0.516 0.281 0.703l5.656 5.656c0.187 0.187 0.453 0.297 0.703 0.297 0.266 0 0.531-0.109 0.719-0.297l8.484-8.484c0.187-0.187 0.281-0.438 0.281-0.703zM24 14c0 6.625-5.375 12-12 12s-12-5.375-12-12 5.375-12 12-12 12 5.375 12 12z"/>
</symbol>
<symbol id="icon-ex-circle" viewBox="0 0 24 28">
<path d="M17.953 17.531c0-0.266-0.109-0.516-0.297-0.703l-2.828-2.828 2.828-2.828c0.187-0.187 0.297-0.438 0.297-0.703s-0.109-0.531-0.297-0.719l-1.406-1.406c-0.187-0.187-0.453-0.297-0.719-0.297s-0.516 0.109-0.703 0.297l-2.828 2.828-2.828-2.828c-0.187-0.187-0.438-0.297-0.703-0.297s-0.531 0.109-0.719 0.297l-1.406 1.406c-0.187 0.187-0.297 0.453-0.297 0.719s0.109 0.516 0.297 0.703l2.828 2.828-2.828 2.828c-0.187 0.187-0.297 0.438-0.297 0.703s0.109 0.531 0.297 0.719l1.406 1.406c0.187 0.187 0.453 0.297 0.719 0.297s0.516-0.109 0.703-0.297l2.828-2.828 2.828 2.828c0.187 0.187 0.438 0.297 0.703 0.297s0.531-0.109 0.719-0.297l1.406-1.406c0.187-0.187 0.297-0.453 0.297-0.719zM24 14c0 6.625-5.375 12-12 12s-12-5.375-12-12 5.375-12 12-12 12 5.375 12 12z"/>
</symbol>
<symbol id="icon-external-link" viewBox="0 0 100 100">
  <path d="m79.297 79.297h-58.594v-58.594h29.297v-7.3242h-36.621v73.242h73.242v-36.621h-7.3242z"/>
  <path d="m57.324 13.379l10.547 10.547-20.762 20.762 8.2031 8.2031 20.762-20.762 10.547 10.547v-29.297z"/>
</symbol>
<symbol id="icon-different-view" viewBox="0 0 100 100">
<path d="m5 77h72v-72h-72zm6-6v-60h60v60zm13-20h6v-16.781l25.781 25.781 4.2188-4.25-25.719-25.75h16.719v-6h-27z"/>
</symbol>
<symbol id="icon-readmore" viewBox="0 0 20 28">
<path d="M18.188 2c0.234 0 0.469 0.047 0.688 0.141 0.688 0.266 1.125 0.906 1.125 1.609v20.141c0 0.703-0.438 1.344-1.125 1.609-0.219 0.094-0.453 0.125-0.688 0.125-0.484 0-0.938-0.172-1.297-0.5l-6.891-6.625-6.891 6.625c-0.359 0.328-0.812 0.516-1.297 0.516-0.234 0-0.469-0.047-0.688-0.141-0.688-0.266-1.125-0.906-1.125-1.609v-20.141c0-0.703 0.438-1.344 1.125-1.609 0.219-0.094 0.453-0.141 0.688-0.141h16.375z"/>
</symbol>
<symbol id="icon-desktop" viewBox="0 0 30 28">
<path d="M28 15.5v-13c0-0.266-0.234-0.5-0.5-0.5h-25c-0.266 0-0.5 0.234-0.5 0.5v13c0 0.266 0.234 0.5 0.5 0.5h25c0.266 0 0.5-0.234 0.5-0.5zM30 2.5v17c0 1.375-1.125 2.5-2.5 2.5h-8.5c0 1.328 1 2.453 1 3s-0.453 1-1 1h-8c-0.547 0-1-0.453-1-1 0-0.578 1-1.641 1-3h-8.5c-1.375 0-2.5-1.125-2.5-2.5v-17c0-1.375 1.125-2.5 2.5-2.5h25c1.375 0 2.5 1.125 2.5 2.5z"/>
</symbol>
<symbol id="icon-laptop" viewBox="0 0 30 28">
<path d="M6.5 20c-1.375 0-2.5-1.125-2.5-2.5v-11c0-1.375 1.125-2.5 2.5-2.5h17c1.375 0 2.5 1.125 2.5 2.5v11c0 1.375-1.125 2.5-2.5 2.5h-17zM6 6.5v11c0 0.266 0.234 0.5 0.5 0.5h17c0.266 0 0.5-0.234 0.5-0.5v-11c0-0.266-0.234-0.5-0.5-0.5h-17c-0.266 0-0.5 0.234-0.5 0.5zM27.5 21h2.5v1.5c0 0.828-1.125 1.5-2.5 1.5h-25c-1.375 0-2.5-0.672-2.5-1.5v-1.5h27.5zM16.25 22.5c0.141 0 0.25-0.109 0.25-0.25s-0.109-0.25-0.25-0.25h-2.5c-0.141 0-0.25 0.109-0.25 0.25s0.109 0.25 0.25 0.25h2.5z"/>
</symbol>
<symbol id="icon-tablet" viewBox="0 0 18 28">
<path d="M10 22c0-0.547-0.453-1-1-1s-1 0.453-1 1 0.453 1 1 1 1-0.453 1-1zM16 19.5v-15c0-0.266-0.234-0.5-0.5-0.5h-13c-0.266 0-0.5 0.234-0.5 0.5v15c0 0.266 0.234 0.5 0.5 0.5h13c0.266 0 0.5-0.234 0.5-0.5zM18 4.5v17c0 1.375-1.125 2.5-2.5 2.5h-13c-1.375 0-2.5-1.125-2.5-2.5v-17c0-1.375 1.125-2.5 2.5-2.5h13c1.375 0 2.5 1.125 2.5 2.5z"/>
</symbol>
<symbol id="icon-mobile" viewBox="0 0 12 28">
<path d="M7.25 22c0-0.688-0.562-1.25-1.25-1.25s-1.25 0.562-1.25 1.25 0.562 1.25 1.25 1.25 1.25-0.562 1.25-1.25zM10.5 19.5v-11c0-0.266-0.234-0.5-0.5-0.5h-8c-0.266 0-0.5 0.234-0.5 0.5v11c0 0.266 0.234 0.5 0.5 0.5h8c0.266 0 0.5-0.234 0.5-0.5zM7.5 6.25c0-0.141-0.109-0.25-0.25-0.25h-2.5c-0.141 0-0.25 0.109-0.25 0.25s0.109 0.25 0.25 0.25h2.5c0.141 0 0.25-0.109 0.25-0.25zM12 6v16c0 1.094-0.906 2-2 2h-8c-1.094 0-2-0.906-2-2v-16c0-1.094 0.906-2 2-2h8c1.094 0 2 0.906 2 2z"/>
</symbol>
<symbol id="icon-code" viewBox="0 0 30 28">
<path d="M9.641 21.859l-0.781 0.781c-0.203 0.203-0.516 0.203-0.719 0l-7.281-7.281c-0.203-0.203-0.203-0.516 0-0.719l7.281-7.281c0.203-0.203 0.516-0.203 0.719 0l0.781 0.781c0.203 0.203 0.203 0.516 0 0.719l-6.141 6.141 6.141 6.141c0.203 0.203 0.203 0.516 0 0.719zM18.875 5.187l-5.828 20.172c-0.078 0.266-0.359 0.422-0.609 0.344l-0.969-0.266c-0.266-0.078-0.422-0.359-0.344-0.625l5.828-20.172c0.078-0.266 0.359-0.422 0.609-0.344l0.969 0.266c0.266 0.078 0.422 0.359 0.344 0.625zM29.141 15.359l-7.281 7.281c-0.203 0.203-0.516 0.203-0.719 0l-0.781-0.781c-0.203-0.203-0.203-0.516 0-0.719l6.141-6.141-6.141-6.141c-0.203-0.203-0.203-0.516 0-0.719l0.781-0.781c0.203-0.203 0.516-0.203 0.719 0l7.281 7.281c0.203 0.203 0.203 0.516 0 0.719z"/>
</symbol>
<symbol id="icon-fork" viewBox="0 0 16 28">
<path d="M4.5 23c0-0.828-0.672-1.5-1.5-1.5s-1.5 0.672-1.5 1.5 0.672 1.5 1.5 1.5 1.5-0.672 1.5-1.5zM4.5 5c0-0.828-0.672-1.5-1.5-1.5s-1.5 0.672-1.5 1.5 0.672 1.5 1.5 1.5 1.5-0.672 1.5-1.5zM14.5 7c0-0.828-0.672-1.5-1.5-1.5s-1.5 0.672-1.5 1.5 0.672 1.5 1.5 1.5 1.5-0.672 1.5-1.5zM16 7c0 1.109-0.609 2.078-1.5 2.594-0.047 5.641-4.047 6.891-6.703 7.734-2.484 0.781-3.297 1.156-3.297 2.672v0.406c0.891 0.516 1.5 1.484 1.5 2.594 0 1.656-1.344 3-3 3s-3-1.344-3-3c0-1.109 0.609-2.078 1.5-2.594v-12.812c-0.891-0.516-1.5-1.484-1.5-2.594 0-1.656 1.344-3 3-3s3 1.344 3 3c0 1.109-0.609 2.078-1.5 2.594v7.766c0.797-0.391 1.641-0.656 2.406-0.891 2.906-0.922 4.562-1.609 4.594-4.875-0.891-0.516-1.5-1.484-1.5-2.594 0-1.656 1.344-3 3-3s3 1.344 3 3z"/>
</symbol>
<symbol id="icon-code-file" viewBox="0 0 24 28">
<path d="M22.937 5.938c0.578 0.578 1.062 1.734 1.062 2.562v18c0 0.828-0.672 1.5-1.5 1.5h-21c-0.828 0-1.5-0.672-1.5-1.5v-25c0-0.828 0.672-1.5 1.5-1.5h14c0.828 0 1.984 0.484 2.562 1.062zM16 2.125v5.875h5.875c-0.094-0.266-0.234-0.531-0.344-0.641l-4.891-4.891c-0.109-0.109-0.375-0.25-0.641-0.344zM22 26v-16h-6.5c-0.828 0-1.5-0.672-1.5-1.5v-6.5h-12v24h20zM7.5 12c0.172-0.219 0.484-0.266 0.703-0.094l0.797 0.594c0.219 0.172 0.266 0.484 0.094 0.703l-2.844 3.797 2.844 3.797c0.172 0.219 0.125 0.531-0.094 0.703l-0.797 0.594c-0.219 0.172-0.531 0.125-0.703-0.094l-3.531-4.703c-0.125-0.172-0.125-0.422 0-0.594zM20.031 16.703c0.125 0.172 0.125 0.422 0 0.594l-3.531 4.703c-0.172 0.219-0.484 0.266-0.703 0.094l-0.797-0.594c-0.219-0.172-0.266-0.484-0.094-0.703l2.844-3.797-2.844-3.797c-0.172-0.219-0.125-0.531 0.094-0.703l0.797-0.594c0.219-0.172 0.531-0.125 0.703 0.094zM10.344 23.906c-0.281-0.047-0.453-0.313-0.406-0.578l2.156-12.984c0.047-0.281 0.313-0.453 0.578-0.406l0.984 0.156c0.281 0.047 0.453 0.313 0.406 0.578l-2.156 12.984c-0.047 0.281-0.313 0.453-0.578 0.406z"/>
</symbol>
<symbol id="icon-cart-plus" viewBox="0 0 26 28">
<path d="M19 11c0-0.547-0.453-1-1-1h-2v-2c0-0.547-0.453-1-1-1s-1 0.453-1 1v2h-2c-0.547 0-1 0.453-1 1s0.453 1 1 1h2v2c0 0.547 0.453 1 1 1s1-0.453 1-1v-2h2c0.547 0 1-0.453 1-1zM10 24c0 1.109-0.891 2-2 2s-2-0.891-2-2 0.891-2 2-2 2 0.891 2 2zM24 24c0 1.109-0.891 2-2 2s-2-0.891-2-2 0.891-2 2-2 2 0.891 2 2zM26 7v8c0 0.5-0.375 0.938-0.891 1l-16.312 1.906c0.063 0.344 0.203 0.734 0.203 1.094s-0.219 0.688-0.375 1h14.375c0.547 0 1 0.453 1 1s-0.453 1-1 1h-16c-0.547 0-1-0.453-1-1 0-0.484 0.734-1.687 0.953-2.141l-2.766-12.859h-3.187c-0.547 0-1-0.453-1-1s0.453-1 1-1h4c1.062 0 1.078 1.25 1.234 2h18.766c0.547 0 1 0.453 1 1z"/>
</symbol>
<symbol id="icon-menu" viewBox="0 0 32 32">
<path d="M2 6h28v6h-28zM2 14h28v6h-28zM2 22h28v6h-28z"/>
</symbol>
<symbol id="icon-hp-tools" viewBox="0 0 80 75">
<g fill="none" fill-rule="evenodd"><path d="M80 74V0H0v74z"/><path d="M56.055 25.186c2.305.87 4.955.458 6.843-1.246l1.104 1.074c-2.499 2.511-.993 2.78 4.546 8.345 1.902 1.914 6.979-4.76 10.913-8.715 1.904-1.912-1.573-4.145-5.148-7.736-1.27-1.277-2.665.423-3.371 1.133-1.366-1.4-.322-16.745-30.547-18.038-.686-.073-2.604.977-.179 2.436 5.453 3.389 9.078 4.657 12.212 10.2-2.207 3.512-1.748 5.471-1.234 7.828L0 65.91C1.495 69.796 4.025 72.655 8.053 74l48.002-48.814z" fill="#1A808A"/><path d="M62.952 74c3.869-1.517 6.707-4.072 8.048-8.15L23.826 20.222C18.552 14.825 29.363 7.94 15.14 3.17c-7.05-.275-6.685-1.296 2.68 8.302l-1.72 5.874-5.836 1.606C-.162 8.227 2.314 9.774 2.138 16.042c5.044 13.423 11.418 3.721 16.576 9.115L62.952 74z" stroke="#0F375F" fill="#0F375F"/></g>
</symbol>
<symbol id="icon-hp-computer" viewBox="0 0 87 74">
<defs><path id="a" d="M67.246 30.5V53H19V8h48.246v22.5z"/></defs><g fill="none" fill-rule="evenodd"><path d="M68 10a3.606 3.606 0 0 0-2-2h2v2z" fill="#FFF"/><path d="M27 13.487a1.516 1.516 0 0 1-1.463 1.512c-.838.023-1.557-.694-1.537-1.533A1.521 1.521 0 0 1 25.511 12 1.517 1.517 0 0 1 27 13.487M29.574 12.002c.806.042 1.454.746 1.425 1.547-.03.845-.78 1.516-1.617 1.446-.801-.067-1.433-.796-1.379-1.59.055-.804.773-1.444 1.571-1.403M33.48 15A1.521 1.521 0 0 1 32 13.503 1.52 1.52 0 0 1 33.474 12 1.516 1.516 0 0 1 35 13.543 1.516 1.516 0 0 1 33.48 15" fill="#043464"/><path d="M4.228 58.59h78.54V4.228H4.227V58.59zM41.384 69.78H30.005c-1.17 0-2.114.947-2.114 2.11 0 1.164.949 2.111 2.114 2.111h27.307c1.17 0 2.114-.947 2.114-2.11 0-1.164-.948-2.111-2.114-2.111H41.384zm4.232-6.967h39.27c1.17 0 2.114-.947 2.114-2.11V2.11C87 .942 86.052 0 84.886 0H2.114C.944 0 0 .947 0 2.11v58.586c0 1.169.943 2.116 2.114 2.116h43.502z" fill="#083562"/><g fill="#0C3660"><path d="M37.629 72L34 71.028 36.371 60l3.629.972zM49.371 72L47 60.972 50.629 60 53 71.028z"/></g><mask id="b" fill="#fff"><use href="#a"/></mask><path d="M55.491 34.73l-5.743 5.324 1.873 1.845 7.656-7.15-7.675-7.159-1.921 1.753 5.81 5.387zm-20.885-7.215l-7.722 7.192c2.54 2.361 5.13 4.768 7.611 7.076l2.159-1.81-5.726-5.31 5.68-5.272-2.002-1.876zm10.869-3.117L37.943 43.37l2.829.965 7.532-18.972-2.829-.966zM22.09 16.394h42.095V10.87H22.09v5.523zM19 10.109c.448-.988 1.198-1.695 2.262-2.109h43.723c1.062.415 1.814 1.12 2.261 2.11v40.78c-.445.992-1.2 1.693-2.261 2.11H21.262c-1.062-.417-1.817-1.118-2.262-2.11V10.11z" fill="#1A808A" mask="url(#b)"/><path d="M68 10a3.606 3.606 0 0 0-2-2h2v2zM66 53a3.605 3.605 0 0 0 2-2v2h-2z" fill="#FFF" mask="url(#b)"/><path d="M27 13.487a1.516 1.516 0 0 1-1.463 1.512c-.838.023-1.557-.694-1.537-1.533A1.521 1.521 0 0 1 25.511 12 1.517 1.517 0 0 1 27 13.487M29.574 12.002c.806.042 1.454.746 1.425 1.547-.03.845-.78 1.516-1.617 1.446-.801-.067-1.433-.796-1.379-1.59.055-.804.773-1.444 1.571-1.403M33.48 15A1.521 1.521 0 0 1 32 13.503 1.52 1.52 0 0 1 33.474 12 1.516 1.516 0 0 1 35 13.543 1.516 1.516 0 0 1 33.48 15" fill="#043464" mask="url(#b)"/></g>
</symbol>
<symbol id="icon-hp-book" viewBox="0 0 100 75">
    <g stroke="none" stroke-width="1" fill="none" fill-rule="evenodd">
        <g transform="translate(-244.000000, -758.000000)">
            <g transform="translate(244.000000, 758.000000)">
                <path d="M15.080328,13.5421558 L29.3402427,16.3720268 L43.4938699,19 L43.7068796,19 C44.3452568,19 44.8773464,18.5955853 44.9838512,17.9892728 C45.0901387,17.2815986 44.664554,16.6752862 43.919672,16.4731821 L29.7660448,13.8454152 L15.6124176,11.0153379 C14.8675356,10.914389 14.2289411,11.3185973 14.0161488,12.0258586 C13.9098613,12.7335328 14.335446,13.441207 15.080328,13.5421558" fill="#1A808A"/>
                <path d="M15.080328,19.5422213 L29.3402427,22.3723718 L43.4938699,25 L43.7068796,25 C44.3452568,25 44.8773464,24.5957813 44.9838512,23.9894532 C45.0901387,23.2819671 44.664554,22.675639 43.919672,22.4733232 L29.7660448,19.8454885 L15.6124176,17.015338 C14.8675356,16.9143866 14.2289411,17.3186053 14.0161488,18.0260913 C13.9098613,18.7335773 14.335446,19.3401119 15.080328,19.5422213" fill="#1A808A"/>
                <path d="M15.080328,26.224474 L29.3402427,28.7008399 L43.4938699,31 L43.7068796,31 C44.3452568,31 44.8773464,30.6463109 44.9838512,30.1157771 C45.0901387,29.4967308 44.664554,28.9661971 43.919672,28.7889913 L29.7660448,26.4898312 L15.6124176,24.0134653 C14.8675356,23.9249527 14.2289411,24.2788225 14.0161488,24.8978688 C13.9098613,25.5169151 14.335446,26.1359614 15.080328,26.224474" fill="#1A808A"/>
                <path d="M15.080328,32.5422562 L29.3402427,35.3721821 L43.4938699,38 L43.7068796,38 C44.3452568,38 44.8773464,37.5957838 44.9838512,36.9892532 C45.0901387,36.2817717 44.664554,35.6754475 43.919672,35.4731329 L29.7660448,32.8455215 L15.6124176,30.0153891 C14.8675356,29.9142319 14.2289411,30.3186545 14.0161488,31.0259295 C13.9098613,31.733411 14.335446,32.4410989 15.080328,32.5422562" fill="#1A808A"/>
                <path d="M15.080328,38.5421557 L29.3402427,41.3722331 L43.4938699,44 L43.7068796,44 C44.3452568,44 44.8773464,43.5957917 44.9838512,42.9894792 C45.0901387,42.281805 44.664554,41.6754926 43.919672,41.4733884 L29.7660448,38.8454151 L15.6124176,36.0153376 C14.8675356,35.9143888 14.2289411,36.3185971 14.0161488,37.0260648 C13.9098613,37.733739 14.335446,38.3400515 15.080328,38.5421557" fill="#1A808A"/>
                <path d="M15.080328,45.5421557 L29.3402427,48.3722331 L43.4938699,51 L43.7068796,51 C44.3452568,51 44.8773464,50.5957917 44.9838512,49.9894792 C45.0901387,49.281805 44.664554,48.6754926 43.919672,48.473182 L29.7660448,45.8454151 L15.6124176,43.0153376 C14.8675356,42.9143888 14.2289411,43.3185971 14.0161488,44.0260648 C13.9098613,44.733739 14.335446,45.4412068 15.080328,45.5421557" fill="#1A808A"/>
                <path d="M15.080328,52.5420537 L29.3402427,55.372184 L43.4938699,58 L43.7068796,58 C44.3452568,58 44.8773464,57.5955777 44.9838512,56.9892539 C45.0901387,56.2817729 44.664554,55.6754491 43.919672,55.4731348 L29.7660448,52.8453188 L15.6124176,50.0153949 C14.8675356,49.9142377 14.2289411,50.3184536 14.0161488,51.0259346 C13.9098613,51.7334155 14.335446,52.3399458 15.080328,52.5420537" fill="#1A808A"/>
                <g fill="#043464">
                    <path d="M91.2866452,58.1750467 L51.1709462,66.3702295 L51.2763226,11.3157858 L91.3918065,3.12060303 L91.2866452,58.1750467 Z M48.6440645,66.3700149 L8.52836559,58.1750467 L8.63374194,3.12038844 L48.7492258,11.3157858 L48.6440645,66.3700149 Z M99.1834194,9.7397974 C97.4986882,9.63464566 95.7087957,9.63464566 94.0240645,9.63464566 L94.0240645,1.64976633 C94.0240645,1.22937399 93.8135269,0.914133382 93.4976129,0.598892775 C93.181914,0.389018497 92.7606237,0.283652168 92.4447097,0.283652168 L50.0128817,8.89922731 L7.58083871,0.178715029 C7.15976344,0.0737778902 6.84384946,0.178715029 6.52793548,0.493955636 C6.21202151,0.704044509 6.00148387,1.12422225 6.00148387,1.5444 L6.00148387,9.52949393 C4.31675269,9.52949393 2.63223656,9.63464566 0.947505376,9.63464566 C0.526430108,9.63464566 0.105139785,10.055038 0.105139785,10.4752158 L-2.15053763e-05,67.0007107 C-2.15053763e-05,67.210585 0.105139785,67.421103 0.315892473,67.6309773 C0.526430108,67.8410662 0.736967742,67.8410662 0.947505376,67.8410662 C17.1623441,67.1056478 33.0610538,69.2069658 48.3281505,73.8297793 L49.6969677,74.2499571 L49.9075054,74.2499571 L50.118043,74.2499571 L51.4868602,73.8297793 C66.753957,69.2069658 82.6528817,67.210585 98.8675054,67.9462179 C99.078043,67.9462179 99.2885806,67.8410662 99.4991183,67.736129 C99.7096559,67.6309773 99.8150323,67.3159513 99.8150323,67.1056478 L99.9204086,10.5801529 C100.025785,10.055038 99.709871,9.7397974 99.1834194,9.7397974 L99.1834194,9.7397974 Z"/>
                </g>
                <path d="M57.2931786,20 L57.5059717,20 L71.7659371,17.3386526 L85.9196145,14.5746481 C86.6644991,14.4724092 87.0903028,13.7559006 86.9837975,13.0391829 C86.8775096,12.3224653 86.132625,11.9133006 85.387523,12.0155395 L71.2340629,14.7793349 L57.0803855,17.4408914 C56.3355009,17.5433394 55.9096972,18.259848 56.0162025,18.9763566 C56.1224904,19.5904172 56.6545819,20 57.2931786,20" fill="#1A808A"/>
                <path d="M57.2931786,26 L57.5059717,26 L71.7659371,23.3386174 L85.9196145,20.5747856 C86.6644991,20.4723362 87.0903028,19.7556091 86.9837975,19.0390911 C86.8775096,18.3225731 86.132625,17.9129848 85.387523,18.0156432 L71.2340629,20.779266 L57.0803855,23.4408577 C56.3355009,23.5430979 55.9096972,24.259825 56.0162025,24.9763431 C56.1224904,25.5906209 56.6545819,26 57.2931786,26" fill="#1A808A"/>
                <path d="M57.2931786,32 L57.5059717,32 L71.7659371,29.6712734 L85.9196145,27.2529031 C86.6644991,27.1634422 87.0903028,26.5363015 86.9837975,25.9093437 C86.8775096,25.2823859 86.132625,24.9239936 85.387523,25.0136374 L71.2340629,27.4320077 L57.0803855,29.7609172 C56.3355009,29.8503781 55.9096972,30.4775189 56.0162025,31.1042937 C56.1224904,31.6417907 56.6545819,32 57.2931786,32" fill="#1A808A"/>
                <path d="M57.2931786,39 L57.5059717,39 L71.7659371,36.3386002 L85.9196145,33.5747505 C86.6644991,33.4725096 87.0903028,32.7557779 86.9837975,32.0390461 C86.8775096,31.3225235 86.132625,30.9131417 85.387523,31.0155917 L71.2340629,33.7794414 L57.0803855,36.4408412 C56.3355009,36.5432911 55.9096972,37.2600229 56.0162025,37.9763365 C56.1224904,38.5906182 56.6545819,39 57.2931786,39" fill="#1A808A"/>
                <path d="M57.2931786,45 L57.5059717,45 L71.7659371,42.6711531 L85.9196145,40.2528477 C86.6644991,40.1632063 87.0903028,39.5362653 86.9837975,38.9093244 C86.8775096,38.2822005 86.132625,37.9240008 85.387523,38.0136422 L71.2340629,40.4317646 L57.0803855,42.7607945 C56.3355009,42.8502529 55.9096972,43.4771939 56.0162025,44.1043178 C56.1224904,44.6416174 56.6545819,45 57.2931786,45" fill="#1A808A"/>
                <path d="M57.2931786,52 L57.5059717,52 L71.7659371,49.3386174 L85.9196145,46.5747854 C86.6644991,46.4723361 87.0903028,45.755818 86.9837975,45.0393 C86.8775096,44.3225728 86.132625,43.9129846 85.387523,44.015643 L71.2340629,46.7792659 L57.0803855,49.4410667 C56.3355009,49.5430979 55.9096972,50.259825 56.0162025,50.976343 C56.1224904,51.5906209 56.6545819,52 57.2931786,52" fill="#1A808A"/>
                <path d="M57.2931786,58 L57.5059717,58 L71.7659371,55.3386002 L85.9196145,52.5745414 C86.6644991,52.4725096 87.0903028,51.7557779 86.9837975,51.0390461 C86.8775096,50.3225235 86.132625,49.9131417 85.387523,50.0155917 L71.2340629,52.7794414 L57.0803855,55.4408412 C56.3355009,55.5432911 55.9096972,56.2598138 56.0162025,56.9763365 C56.1224904,57.5904091 56.6545819,58 57.2931786,58" fill="#1A808A"/>
            </g>
        </g>
    </g>
</symbol>
<symbol id="icon-languages" viewBox="0 0 60 26">
<path d="M32 8a.988.988 0 0 1-.55.89L26 11.62V25a1.003 1.003 0 0 1-1 1H1a1.003 1.003 0 0 1-1-1V1a1.003 1.003 0 0 1 1-1h24c.552.002.998.448 1 1v3.38l5.45 2.73A.988.988 0 0 1 32 8zM17.007 21.336h3.717L14.959 5h-4.217L5 21.336h3.717l1.18-3.873h5.93l1.18 3.873zm-2.003-6.766h-4.24c1.158-3.746 1.859-6.094 2.103-7.044.06.267.158.63.295 1.09.138.46.751 2.445 1.842 5.954z"/><path d="M59 0H35a1.003 1.003 0 0 0-1 1v13.38l-5.45 2.73a.995.995 0 0 0 0 1.78L34 21.62V25c.002.552.448.998 1 1h24a1.003 1.003 0 0 0 1-1V1a1.003 1.003 0 0 0-1-1zm-5.684 18.052a1 1 0 1 1-.632 1.896 21.753 21.753 0 0 1-5.673-2.944 14.002 14.002 0 0 1-5.768 2.966 1 1 0 1 1-.486-1.94 12.094 12.094 0 0 0 4.633-2.273 24.408 24.408 0 0 1-3.17-3.132 1 1 0 0 1 1.56-1.25 23.594 23.594 0 0 0 3.095 3.002A14.643 14.643 0 0 0 49.605 10H41a1 1 0 0 1 0-2h5V7a1 1 0 0 1 2 0v1h5a1 1 0 0 1 0 2h-1.264a16.845 16.845 0 0 1-3.262 5.58 19.473 19.473 0 0 0 4.842 2.472z"/>
</symbol>
<symbol id="icon-translations" viewBox="0 0 2412 2794">
    <g stroke="none" stroke-width="1" fill="none" fill-rule="evenodd">
        <polyline id="Fill-1" fill="currentColor" points="1204.57 359.16 271.83 29.96 271.83 2060.05 1204.57 1758.28 1204.57 359.16"/>
        <polyline id="Fill-2" fill="white" points="1182.18 358.14 2150.63 28.95 2150.63 2059.04 1182.18 1757.27 1182.18 358.14"/>
        <polyline id="Fill-3" fill="white" points="29.96 2415.43 1182.18 2031.38 1182.18 357.92 29.96 741.97 29.96 2415.43"/>
        <polyline id="Fill-4" fill="currentColor" points="1707.21 2440.71 1870.51 2709.37 1956.62 2459.8 1707.21 2440.71"/>
        <path d="M421.74,934.75 C415.62,928.74 429.71,983.86 449.32,1003.69 C484.09,1038.77 511.25,1043.29 525.71,1043.87 C557.71,1045.15 597.2,1035.9 620.65,1026.07 C643.34,1016.39 683.1,996.09 698.15,966.48 C701.34,960.15 710.05,949.52 704.58,923.26 C700.43,903.06 687.57,895.99 671.89,897.11 C656.21,898.17 608.74,910.83 585.78,917.89 C562.81,924.86 515.5,939.26 494.88,943.73 C474.31,948.19 428.96,941.66 421.74,934.75" id="Fill-5" fill="currentColor"/>
        <path d="M1003.1,1593.67 C994.02,1590.37 806.16,1512.55 779.53,1499.8 C757.74,1489.32 704.31,1466.73 679.17,1456.47 C749.98,1347.29 794.68,1264.9 800.63,1252.35 C811.64,1229.39 886.59,1082.73 888.34,1073.7 C890.04,1064.55 892.17,1030.75 890.52,1022.72 C888.87,1014.53 861.39,1030.27 824.08,1042.92 C786.71,1055.52 715.69,1101.71 688.26,1107.5 C660.73,1113.24 572.75,1146.57 527.73,1161.51 C482.71,1176.45 397.55,1202.44 362.52,1211.9 C327.44,1221.36 296.82,1222.11 277.2,1228.06 C277.2,1228.06 279.81,1255.54 285.02,1263.78 C290.17,1272.02 308.73,1292.22 330.31,1297.86 C351.89,1303.54 387.61,1301.26 403.88,1297.54 C420.14,1293.76 448.31,1280 452.09,1273.99 C455.91,1267.88 450.12,1249.06 456.55,1243.37 C463.04,1237.74 548.78,1217.7 581.15,1207.92 C613.52,1197.97 737.43,1155.29 754.23,1157.47 C748.91,1175.12 649.24,1372.54 617.14,1431.44 C585.03,1490.33 398.51,1749.42 358.8,1795.08 C328.66,1829.79 255.62,1918.61 230.32,1938.65 C236.7,1940.41 281.93,1936.53 290.17,1931.43 C341.52,1899.8 427.05,1793.33 454.59,1760.9 C536.45,1664.9 608.37,1564.06 665.4,1477.52 L665.46,1477.52 C676.57,1482.15 766.4,1555.34 789.84,1571.56 C813.28,1587.77 905.78,1639.38 925.82,1647.94 C945.86,1656.61 1022.88,1692.12 1026.12,1680.1 C1029.36,1667.98 1012.19,1597.12 1003.1,1593.67" id="Fill-6" fill="currentColor"/>
        <path d="M569,2572 C587,2583 604,2592 623,2601 C661,2620 704,2640 745,2655 C801,2676 857,2693 913,2706 C944,2713 978,2719 1011,2724 C1014,2724 1103,2735 1121,2735 L1211,2735 C1246,2732 1279,2730 1314,2725 C1342,2721 1373,2716 1403,2709 C1425,2704 1448,2699 1470,2692 C1491,2686 1515,2678 1538,2670 C1553,2665 1569,2658 1585,2652 C1598,2646 1614,2639 1629,2633 C1647,2625 1668,2614 1688,2604 C1704,2596 1722,2586 1739,2576 C1752,2569 1782,2546 1798,2546 C1816,2546 1828,2562 1828,2576 C1828,2605 1789,2614 1771,2627 C1752,2640 1729,2650 1709,2661 C1669,2682 1628,2700 1589,2715 C1538,2734 1482,2752 1432,2764 C1413,2768 1394,2773 1375,2776 C1365,2778 1261,2794 1232,2794 L1100,2794 C1065,2791 1028,2787 993,2782 C962,2777 929,2771 898,2764 C874,2759 848,2752 825,2745 C785,2734 746,2720 708,2705 C639,2679 567,2645 499,2600 C487,2592 486,2584 486,2575 C486,2560 497,2546 515,2546 C531,2546 563,2569 569,2572" id="Fill-7" fill="currentColor"/>
        <g id="Group-11">
            <mask id="mask-2" fill="white">
                <polygon id="path-1" points="0 0.04 2181 0.04 2181 2445 0 2445"/>
            </mask>
            <g id="Clip-9"/>
            <path d="M1212,354 L1212,2034 C1211,2039 1209,2044 1205,2049 C1203,2052 1199,2056 1196,2057 C1171,2067 45,2445 30,2445 C18,2445 7,2437 1,2424 C1,2423 0,2422 0,2420 L0,739 C2,734 3,727 7,723 C15,712 29,710 38,707 C55,701 1164,329 1180,329 C1190,329 1212,336 1212,354 Z M1151,2009 L61,2372 L61,764 L1151,401 L1151,2009 L1151,2009 Z" id="Fill-8" fill="currentColor" mask="url(#mask-2)"/>
            <path d="M2181,32 L2181,2055 C2180,2078 2164,2088 2149,2088 C2136,2088 2042,2056 2026,2051 C1900,2012 1773,1973 1648,1934 C1620,1925 1591,1916 1564,1907 C1540,1900 1514,1892 1490,1884 C1383,1851 1274,1818 1167,1782 C1163,1781 1153,1767 1153,1764 L1153,351 C1155,346 1157,340 1162,336 C1170,327 1513,213 1648,168 C1684,155 2135,0 2149,0 C2167,0 2181,13 2181,32 Z M2120,2017 L1213,1735 L1213,380 L2120,72 L2120,2017 L2120,2017 Z" id="Fill-10" fill="currentColor" mask="url(#mask-2)"/>
        </g>
        <polyline id="Fill-12" fill="currentColor" points="2411.21 2440.71 1199.5 2054.5 1204.57 373.2 2411.21 757.25 2411.21 2440.71"/>
        <path d="M1728.98,853.19 L1885.09,900.48 L2169.5,1925.5 L2009.15,1876.85 L1951.54,1666.42 L1620.16,1565.98 L1548.9,1737.4 L1388.5,1688.74 L1728.98,853.19 Z M1800.35,1124.55 L1681.42,1412.01 L1900.07,1478.29 L1800.35,1124.55 L1800.35,1124.55 Z" id="Fill-13" fill="white"/>
    </g>
</symbol>
<symbol id="icon-rss" viewBox="0 0 32 32">
<path d="M25.599 32c0-14.044-11.555-25.6-25.599-25.6v-6.4c17.553 0 32 14.447 32 32h-6.401zM4.388 23.22c2.419 0 4.391 1.972 4.391 4.393 0 2.417-1.98 4.387-4.401 4.387-2.417 0-4.377-1.965-4.377-4.387s1.967-4.392 4.388-4.393zM21.212 32h-6.22c0-8.225-6.767-14.993-14.992-14.993v-6.22c11.636 0 21.212 9.579 21.212 21.213z"/>
</symbol>
<symbol id="icon-twitter" viewBox="0 0 32 32">
<path d="M31.939 6.092c-1.18 0.519-2.44 0.872-3.767 1.033 1.352-0.815 2.392-2.099 2.884-3.631-1.268 0.74-2.673 1.279-4.169 1.579-1.195-1.279-2.897-2.079-4.788-2.079-3.623 0-6.56 2.937-6.56 6.556 0 0.52 0.060 1.020 0.169 1.499-5.453-0.257-10.287-2.876-13.521-6.835-0.569 0.963-0.888 2.081-0.888 3.3 0 2.28 1.16 4.284 2.917 5.461-1.076-0.035-2.088-0.331-2.971-0.821v0.081c0 3.18 2.257 5.832 5.261 6.436-0.551 0.148-1.132 0.228-1.728 0.228-0.419 0-0.82-0.040-1.221-0.115 0.841 2.604 3.26 4.503 6.139 4.556-2.24 1.759-5.079 2.807-8.136 2.807-0.52 0-1.039-0.031-1.56-0.089 2.919 1.859 6.357 2.945 10.076 2.945 12.072 0 18.665-9.995 18.665-18.648 0-0.279 0-0.56-0.020-0.84 1.281-0.919 2.4-2.080 3.28-3.397l-0.063-0.027z"/>
</symbol>
<symbol id="icon-youtube" viewBox="0 0 32 32">
<path d="M31.327 8.273c-0.386-1.353-1.431-2.398-2.756-2.777l-0.028-0.007c-2.493-0.668-12.528-0.668-12.528-0.668s-10.009-0.013-12.528 0.668c-1.353 0.386-2.398 1.431-2.777 2.756l-0.007 0.028c-0.443 2.281-0.696 4.903-0.696 7.585 0 0.054 0 0.109 0 0.163l-0-0.008c-0 0.037-0 0.082-0 0.126 0 2.682 0.253 5.304 0.737 7.845l-0.041-0.26c0.386 1.353 1.431 2.398 2.756 2.777l0.028 0.007c2.491 0.669 12.528 0.669 12.528 0.669s10.008 0 12.528-0.669c1.353-0.386 2.398-1.431 2.777-2.756l0.007-0.028c0.425-2.233 0.668-4.803 0.668-7.429 0-0.099-0-0.198-0.001-0.297l0 0.015c0.001-0.092 0.001-0.201 0.001-0.31 0-2.626-0.243-5.196-0.708-7.687l0.040 0.258zM12.812 20.801v-9.591l8.352 4.803z"/>
</symbol>
<symbol id="icon-creative-commons" viewBox="0 0 28 28">
<path d="M9.453 19.266c2.562 0 3.953-1.563 4.016-1.625 0.125-0.156 0.156-0.391 0.047-0.562l-0.703-1.281c-0.063-0.141-0.219-0.234-0.375-0.266-0.156-0.016-0.313 0.047-0.422 0.172-0.016 0-1 1.047-2.438 1.047-1.578 0-2.719-1.156-2.719-2.766 0-1.594 1.109-2.734 2.656-2.734 1.297 0 2.156 0.875 2.156 0.875 0.109 0.109 0.25 0.172 0.406 0.156s0.297-0.094 0.375-0.219l0.828-1.219c0.125-0.187 0.109-0.438-0.031-0.609-0.047-0.063-1.313-1.5-3.797-1.5-3.078 0-5.375 2.266-5.375 5.266 0 3.047 2.25 5.266 5.375 5.266zM19.297 19.266c2.578 0 3.953-1.563 4.016-1.625 0.125-0.156 0.156-0.391 0.063-0.562l-0.703-1.281c-0.078-0.141-0.219-0.234-0.391-0.266-0.156-0.016-0.313 0.047-0.422 0.172-0.016 0-1 1.047-2.438 1.047-1.578 0-2.719-1.156-2.719-2.766 0-1.594 1.109-2.734 2.656-2.734 1.313 0 2.156 0.875 2.156 0.875 0.109 0.109 0.25 0.172 0.406 0.156s0.297-0.094 0.375-0.219l0.828-1.219c0.125-0.187 0.109-0.438-0.031-0.609-0.047-0.063-1.313-1.5-3.797-1.5-3.063 0-5.375 2.266-5.375 5.266 0 3.047 2.25 5.266 5.375 5.266zM14 2.5c-6.344 0-11.5 5.156-11.5 11.5s5.156 11.5 11.5 11.5 11.5-5.156 11.5-11.5-5.156-11.5-11.5-11.5zM14 0c7.734 0 14 6.266 14 14s-6.266 14-14 14-14-6.266-14-14 6.266-14 14-14z"/>
</symbol>
</defs>
</svg>