<svg
  xmlns="http://www.w3.org/2000/svg"
  height="44"
  width="91.968"
  viewBox="0 0 91.968 44"
>
   <g fill-rule="evenodd" fill="none"><path
      fill="#015a9c"
      d="M-.231-.21h92.917v44.659H-.23z"
    />
      <g fill-rule="nonzero" fill="#fff"><path
        d="M21.752 0l7.789 26.78L37.329 0H58.444v2.662l-7.95 13.852c2.792.907 4.905 2.555 6.337 4.944 1.432 2.391 2.149 5.196 2.149 8.419 0 3.985-1.048 7.335-3.143 10.05C53.742 42.642 51.029 44 47.7 44c-2.507 0-4.691-.806-6.552-2.417-1.862-1.611-3.24-3.793-4.136-6.546l4.403-1.846c.646 1.666 1.496 2.979 2.552 3.938 1.056.96 2.3 1.438 3.733 1.438 1.504 0 2.775-.85 3.813-2.552 1.039-1.703 1.558-3.747 1.558-6.14 0-2.643-.556-4.69-1.664-6.138-1.29-1.701-3.314-2.554-6.071-2.554h-2.148v-2.606l7.52-13.147H41.63l-.516.889-11.04 37.678h-.536L21.48 16.73l-8.056 27.268h-.537L0 0h5.64l7.787 26.78 5.264-18.033L16.113 0zM87.958 0c-1.077 0-2.044.388-2.777 1.133-.777.79-1.21 1.81-1.21 2.866s.412 2.034 1.167 2.8C85.905 7.579 86.892 8 87.959 8c1.043 0 2.055-.422 2.843-1.188.755-.733 1.166-1.711 1.166-2.811a3.997 3.997 0 00-1.155-2.811A3.946 3.946 0 0087.958 0zm3.476 4.034a3.32 3.32 0 01-1.01 2.41c-.69.668-1.544 1.023-2.489 1.023a3.405 3.405 0 01-2.42-1.033c-.655-.667-1.022-1.523-1.022-2.433 0-.911.378-1.8 1.055-2.489.633-.645 1.488-.988 2.42-.988.955 0 1.81.356 2.477 1.033.645.643.99 1.51.99 2.477zm-3.366-2.378h-1.71v4.533h.855V4.256h.845l.922 1.933h.955l-1.012-2.066c.655-.134 1.033-.578 1.033-1.223 0-.822-.621-1.244-1.888-1.244zm-.155.555c.8 0 1.165.222 1.165.778 0 .533-.365.722-1.144.722h-.722v-1.5zM82.109 0l.862 5.914-3.05 6.588s-1.172-2.795-3.118-4.342c-1.64-1.303-2.708-1.586-4.378-1.198-2.145.5-4.577 3.394-5.638 6.963-1.27 4.27-1.283 6.336-1.328 8.234-.071 3.042.354 4.841.354 4.841s-1.853-3.868-1.835-9.533c.012-4.043.576-7.71 2.233-11.328 1.459-3.181 3.626-5.09 5.55-5.315 1.99-.232 3.562.85 4.777 2.02 1.276 1.23 2.565 3.918 2.565 3.918zM82.202 31.824s-1.338 2.567-2.171 3.556c-.834.99-2.326 2.732-4.167 3.603-1.842.872-2.808 1.036-4.628.849-1.82-.188-3.51-1.319-4.102-1.79-.592-.472-2.106-1.861-2.962-3.156C63.317 33.59 61.98 31 61.98 31s.745 2.596 1.212 3.698c.269.635 1.094 2.574 2.265 4.262 1.092 1.576 3.214 4.287 6.438 4.899 3.224.613 5.44-.942 5.987-1.319.549-.376 1.704-1.416 2.436-2.256.763-.877 1.486-1.995 1.886-2.666.292-.49.768-1.485.768-1.485z"
      /></g>
   </g>
</svg>
