<svg height="75" viewBox="0 0 180 75" width="180" xmlns="http://www.w3.org/2000/svg"><g fill="none" fill-rule="evenodd"><path d="m-110 0h290v75h-290z" fill="#015a9c"/><g transform="translate(-96 14)"><path d="m101 25h160" stroke="#eed009" stroke-linecap="square" stroke-width="2"/><g fill="#fff" fill-rule="nonzero"><path d="m115.541016 16h-1.816407l-2.783203-9.35546875c-.410158-1.39323613-.651041-2.33398193-.722656-2.82226563-.104167.74870167-.332029 1.70897852-.683594 2.88085938l-2.695312 9.296875h-1.816406l-3.779297-14.27734375h1.875l2.216797 8.72070315c.29948 1.1393286.527342 2.2721298.683593 3.3984375.14323-1.0677137.397134-2.2363218.761719-3.5058594l2.519531-8.61328125h1.855469l2.626953 8.68164065c.338543 1.1263077.598958 2.2721296.78125 3.4375.104167-.898442.335285-2.0377535.693359-3.4179688l2.207032-8.70117185h1.875zm10.126953.1953125c-1.608081 0-2.869462-.4866488-3.78418-1.4599609-.914718-.9733122-1.37207-2.312817-1.37207-4.0185547 0-1.71875862.426428-3.08756003 1.279297-4.10644534.852868-1.0188853 2.005201-1.52832031 3.457031-1.52832031 1.347663 0 2.421871.43456597 3.222656 1.30371094s1.201172 2.04589101 1.201172 3.53027343v1.06445318h-7.34375c.032552 1.217454.341794 2.1419239.927734 2.7734374.585941.6315136 1.416011.9472657 2.490235.9472657.572919 0 1.116534-.0504552 1.630859-.1513672.514326-.100912 1.116533-.2978501 1.806641-.5908203v1.5429687c-.592451.2539075-1.149086.4329422-1.669922.5371094s-1.136064.15625-1.845703.15625zm-.439453-9.67773438c-.839848 0-1.503904.27017959-1.992188.81054688s-.777994 1.29231289-.86914 2.25585938h5.458984c-.013021-1.00260918-.244139-1.76432032-.69336-2.28515626-.44922-.52083593-1.08398-.78125-1.904296-.78125zm12.236328-1.41601562c1.412767 0 2.503251.48664878 3.271484 1.45996094s1.152344 2.33234804 1.152344 4.07714846c0 1.7708422-.390621 3.1396436-1.171875 4.1064453s-1.865228 1.4501953-3.251953 1.4501953c-.72266 0-1.367185-.130207-1.933594-.390625s-1.028644-.6477839-1.386719-1.1621094h-.136719c-.201823.7812539-.322265 1.2337234-.361328 1.3574219h-1.259765v-15.1953125h1.757812v3.69140625c0 .73568076-.032552 1.47135049-.097656 2.20703125h.097656c.72266-1.06771367 1.82942-1.6015625 3.320313-1.6015625zm-.292969 1.45507812c-1.080735 0-1.855466.30598653-2.324219.91796876-.468752.61198222-.703125 1.64712812-.703125 3.10546872v.078125c0 1.4648511.239256 2.5113901.717774 3.1396485.478518.6282583 1.261387.9423828 2.348633.9423828.963546 0 1.681312-.3531866 2.15332-1.0595703.472007-.7063838.708008-1.7268814.708008-3.0615235 0-1.35417341-.237628-2.36978826-.712891-3.04687498-.475263-.67708671-1.204422-1.015625-2.1875-1.015625zm21.914063 9.44335938-1.71875-4.4238281h-5.664063l-1.699219 4.4238281h-1.816406l5.576172-14.3359375h1.621094l5.566406 14.3359375zm-2.25586-6.015625-1.601562-4.32617188-.683594-2.13867187c-.195314.78125391-.40039 1.4941374-.615234 2.13867187l-1.621094 4.32617188zm10.136719 6.2109375c-1.542977 0-2.744136-.4736281-3.603516-1.4208984-.859379-.9472704-1.289062-2.3063063-1.289062-4.0771485 0-1.79688396.434566-3.18196125 1.303711-4.15527341s2.107739-1.45996094 3.71582-1.45996094c.520836 0 1.036781.0537104 1.547852.16113281.51107.10742241.932617.24576739 1.264648.41503906l-.537109 1.46484376c-.904953-.33854336-1.676429-.5078125-2.314453-.5078125-1.080735 0-1.878253.34016586-2.392579 1.02050781-.514325.68034194-.771484 1.6943292-.771484 3.04199221 0 1.2955794.257159 2.2867804.771484 2.9736328.514326.6868524 1.276037 1.0302734 2.285157 1.0302734.944015 0 1.87174-.2083312 2.783203-.625v1.5625c-.742191.3841165-1.663406.5761719-2.763672.5761719zm9.599609 0c-1.542976 0-2.744136-.4736281-3.603515-1.4208984-.85938-.9472704-1.289063-2.3063063-1.289063-4.0771485 0-1.79688396.434566-3.18196125 1.303711-4.15527341s2.107739-1.45996094 3.71582-1.45996094c.520836 0 1.036782.0537104 1.547852.16113281s.932617.24576739 1.264648.41503906l-.537109 1.46484376c-.904952-.33854336-1.676429-.5078125-2.314453-.5078125-1.080735 0-1.878253.34016586-2.392578 1.02050781-.514326.68034194-.771485 1.6943292-.771485 3.04199221 0 1.2955794.257159 2.2867804.771485 2.9736328.514325.6868524 1.276036 1.0302734 2.285156 1.0302734.944015 0 1.87174-.2083312 2.783203-.625v1.5625c-.742191.3841165-1.663406.5761719-2.763672.5761719zm9.863282 0c-1.608081 0-2.869462-.4866488-3.78418-1.4599609-.914718-.9733122-1.37207-2.312817-1.37207-4.0185547 0-1.71875862.426428-3.08756003 1.279296-4.10644534.852869-1.0188853 2.005201-1.52832031 3.457032-1.52832031 1.347663 0 2.421871.43456597 3.222656 1.30371094s1.201172 2.04589101 1.201172 3.53027343v1.06445318h-7.34375c.032552 1.217454.341794 2.1419239.927734 2.7734374.585941.6315136 1.41601.9472657 2.490234.9472657.57292 0 1.116534-.0504552 1.63086-.1513672.514325-.100912 1.116533-.2978501 1.80664-.5908203v1.5429687c-.59245.2539075-1.149085.4329422-1.669921.5371094s-1.136065.15625-1.845703.15625zm-.439454-9.67773438c-.839848 0-1.503903.27017959-1.992187.81054688s-.777994 1.29231289-.869141 2.25585938h5.458985c-.013021-1.00260918-.244139-1.76432032-.69336-2.28515626-.449221-.52083593-1.08398-.78125-1.904297-.78125zm14.140625 6.52343748c0 1.0026092-.374345 1.7789686-1.123047 2.3291016-.748701.5501329-1.800123.8251953-3.154296.8251953-1.412768 0-2.535804-.2246071-3.369141-.6738281v-1.6015625c1.178391.5729195 2.314448.859375 3.408203.859375.885421 0 1.529946-.1432278 1.933594-.4296875.403648-.2864598.605469-.6705705.605469-1.1523438 0-.4231792-.193683-.7812485-.581055-1.0742187s-1.075841-.6282533-2.06543-1.0058594c-1.009119-.390627-1.718748-.7242825-2.128906-1.0009766-.410158-.27669405-.711262-.58756334-.90332-.93261715-.192059-.34505381-.288086-.76497148-.288086-1.25976563 0-.87891064.358069-1.57226308 1.074218-2.08007812.71615-.50781504 1.699213-.76171875 2.949219-.76171875 1.217454 0 2.356766.24088301 3.417969.72265625l-.595703 1.39648438c-1.087245-.45573145-2.067053-.68359376-2.939453-.68359376-.729171 0-1.28255.11555875-1.660156.34667969-.377607.23112095-.566407.54850059-.566407.95214844 0 .39062695.162759.71451694.488281.97167969.325523.25716274 1.083979.61360449 2.275391 1.06933594.891932.33203292 1.551105.64127462 1.977539.92773432.426435.2864598.740559.6087222.942383.9667969s.302734.7877579.302734 1.2890625zm9.580079 0c0 1.0026092-.374346 1.7789686-1.123047 2.3291016-.748702.5501329-1.800124.8251953-3.154297.8251953-1.412768 0-2.535803-.2246071-3.369141-.6738281v-1.6015625c1.178391.5729195 2.314448.859375 3.408203.859375.885421 0 1.529946-.1432278 1.933594-.4296875.403648-.2864598.605469-.6705705.605469-1.1523438 0-.4231792-.193683-.7812485-.581055-1.0742187s-1.075841-.6282533-2.06543-1.0058594c-1.009119-.390627-1.718748-.7242825-2.128906-1.0009766-.410158-.27669405-.711262-.58756334-.90332-.93261715s-.288086-.76497148-.288086-1.25976563c0-.87891064.358069-1.57226308 1.074219-2.08007812.716149-.50781504 1.699212-.76171875 2.949218-.76171875 1.217454 0 2.356766.24088301 3.417969.72265625l-.595703 1.39648438c-1.087245-.45573145-2.067053-.68359376-2.939453-.68359376-.72917 0-1.28255.11555875-1.660156.34667969-.377606.23112095-.566407.54850059-.566407.95214844 0 .39062695.162759.71451694.488282.97167969.325522.25716274 1.083978.61360449 2.27539 1.06933594.891932.33203292 1.551105.64127462 1.977539.92773432.426435.2864598.740559.6087222.942383.9667969s.302735.7877579.302735 1.2890625zm4.355468 2.9589844h-1.757812v-10.72265625h1.757812zm-1.894531-13.62304688c0-.39062695.099283-.67382724.297852-.84960937.198568-.17578213.444334-.26367187.737304-.26367187.273439 0 .512695.08788974.717774.26367187s.307617.45898242.307617.84960937c0 .38411651-.102538.6673168-.307617.84960938s-.444335.2734375-.717774.2734375c-.29297 0-.538736-.09114492-.737304-.2734375-.198569-.18229258-.297852-.46549287-.297852-.84960938zm10.371094 2.72460938c1.412767 0 2.503251.48664878 3.271484 1.45996094s1.152344 2.33234804 1.152344 4.07714846c0 1.7708422-.390621 3.1396436-1.171875 4.1064453s-1.865228 1.4501953-3.251953 1.4501953c-.72266 0-1.367185-.130207-1.933594-.390625s-1.028644-.6477839-1.386719-1.1621094h-.136718c-.201824.7812539-.322266 1.2337234-.361329 1.3574219h-1.259765v-15.1953125h1.757812v3.69140625c0 .73568076-.032552 1.47135049-.097656 2.20703125h.097656c.72266-1.06771367 1.82942-1.6015625 3.320313-1.6015625zm-.292969 1.45507812c-1.080735 0-1.855466.30598653-2.324219.91796876-.468752.61198222-.703125 1.64712812-.703125 3.10546872v.078125c0 1.4648511.239256 2.5113901.717774 3.1396485.478518.6282583 1.261387.9423828 2.348632.9423828.963547 0 1.681313-.3531866 2.153321-1.0595703.472007-.7063838.708008-1.7268814.708008-3.0615235 0-1.35417341-.237628-2.36978826-.712891-3.04687498-.475263-.67708671-1.204422-1.015625-2.1875-1.015625zm9.277344 9.44335938h-1.757813v-10.72265625h1.757813zm-1.894532-13.62304688c0-.39062695.099283-.67382724.297852-.84960937s.444335-.26367187.737305-.26367187c.273439 0 .512694.08788974.717773.26367187s.307617.45898242.307617.84960937c0 .38411651-.102538.6673168-.307617.84960938s-.444334.2734375-.717773.2734375c-.29297 0-.538736-.09114492-.737305-.2734375s-.297852-.46549287-.297852-.84960938zm7.050782 13.62304688h-1.757813v-15.1953125h1.757813zm5.15625 0h-1.757813v-10.72265625h1.757813zm-1.894532-13.62304688c0-.39062695.099283-.67382724.297852-.84960937s.444335-.26367187.737305-.26367187c.273439 0 .512694.08788974.717773.26367187s.307617.45898242.307617.84960937c0 .38411651-.102538.6673168-.307617.84960938s-.444334.2734375-.717773.2734375c-.29297 0-.538736-.09114492-.737305-.2734375s-.297852-.46549287-.297852-.84960938zm8.876954 12.38281248c.227865 0 .49479-.0227862.800781-.0683594.305991-.0455731.537108-.0976559.693359-.15625v1.3476563c-.162761.0716149-.415037.1416012-.756836.2099609-.341798.0683598-.688474.1025391-1.040039.1025391-2.096364 0-3.144531-1.1035046-3.144531-3.3105469v-6.24023435h-1.513672v-.83984375l1.533203-.703125.703125-2.28515625h1.044922v2.4609375h3.095703v1.3671875h-3.095703v6.19140625c0 .6184927.148111 1.0937483.444336 1.4257813.296226.3320329.708005.4980468 1.235352.4980468zm1.953125-9.48242185h1.884765l2.314453 6.10351565c.488284 1.3281316.78776 2.3014292.898438 2.9199218h.078125c.058594-.2408866.192056-.6917284.40039-1.352539.208335-.6608106.384114-1.1897767.527344-1.5869141l2.177735-6.08398435h1.894531l-4.619141 12.20703125c-.449221 1.1849018-.98307 2.0345026-1.601562 2.5488281-.618493.5143255-1.383459.7714844-2.294922.7714844-.488284 0-.973305-.055338-1.455078-.1660156v-1.3964844c.325522.0781254.716143.1171875 1.171875.1171875.559898 0 1.035154-.1546208 1.425781-.4638672.390627-.3092463.709634-.7861296.957031-1.430664l.556641-1.4257813z"/><path d="m106.957031 46h-5.15625v-1.0351562l1.679688-.3808594v-11.4257813l-1.679688-.4003906v-1.0351563h5.15625v1.0351563l-1.679687.4003906v11.4257813l1.679687.3808594zm9.824219 0v-6.8554688c0-.8724001-.193683-1.5218077-.581055-1.9482421-.387371-.4264345-.994462-.6396485-1.821289-.6396485-1.100266 0-1.899411.304359-2.397461.913086-.498049.608727-.74707 1.599928-.74707 2.9736328v5.5566406h-1.757813v-10.7226562h1.416016l.263672 1.4648437h.097656c.332033-.5273464.797523-.9358709 1.396485-1.2255859.598961-.289715 1.259762-.4345704 1.982421-.4345704 1.315111 0 2.291664.3190073 2.929688.9570313s.957031 1.6308526.957031 2.9785156v6.9824219zm6.816406 0h-1.757812v-10.7226562h1.757812zm-1.894531-13.6230469c0-.3906269.099283-.6738272.297852-.8496093.198568-.1757822.444334-.2636719.737304-.2636719.273439 0 .512695.0878897.717774.2636719.205079.1757821.307617.4589824.307617.8496093 0 .3841165-.102538.6673168-.307617.8496094s-.444335.2734375-.717774.2734375c-.29297 0-.538736-.0911449-.737304-.2734375-.198569-.1822926-.297852-.4654929-.297852-.8496094zm8.876953 12.3828125c.227866 0 .49479-.0227862.800781-.0683594.305991-.0455731.537109-.0976559.69336-.15625v1.3476563c-.162761.0716149-.415038.1416012-.756836.2099609-.341799.0683598-.688475.1025391-1.040039.1025391-2.096365 0-3.144532-1.1035046-3.144532-3.3105469v-6.2402344h-1.513671v-.8398437l1.533203-.703125.703125-2.2851563h1.044922v2.4609376h3.095703v1.3671874h-3.095703v6.1914063c0 .6184927.14811 1.0937483.444336 1.4257813.296225.3320329.708005.4980468 1.235351.4980468zm5.390625 1.2402344h-1.757812v-10.7226562h1.757812zm-1.894531-13.6230469c0-.3906269.099283-.6738272.297851-.8496093.198569-.1757822.444335-.2636719.737305-.2636719.273439 0 .512694.0878897.717774.2636719.205079.1757821.307617.4589824.307617.8496093 0 .3841165-.102538.6673168-.307617.8496094-.20508.1822926-.444335.2734375-.717774.2734375-.29297 0-.538736-.0911449-.737305-.2734375-.198568-.1822926-.297851-.4654929-.297851-.8496094zm11.914062 13.6230469-.341796-1.5234375h-.078126c-.533856.6705763-1.066078 1.1246733-1.596679 1.3623047-.530602.2376314-1.19954.3564453-2.006836.3564453-1.054693 0-1.881508-.2766899-2.480469-.8300781s-.898437-1.3346304-.898437-2.34375c0-2.1744901 1.715477-3.3138016 5.146484-3.4179688l1.816406-.0683594v-.6347656c0-.8138061-.175779-1.4143861-.527343-1.8017578-.351565-.3873717-.91471-.5810547-1.689454-.5810547-.566409 0-1.101885.0846346-1.606445.2539063s-.978188.3580719-1.420898.5664062l-.53711-1.3183594c.540368-.2864597 1.129554-.5110668 1.767578-.6738281.638024-.1627612 1.269528-.2441406 1.894532-.2441406 1.295579 0 2.259111.2864555 2.890625.859375.631513.5729195.947265 1.4843688.947265 2.734375v7.3046875zm-3.623046-1.2207031c.983077 0 1.756182-.2652969 2.319335-.7958985.563154-.5306016.844727-1.2841748.844727-2.2607422v-.9667968l-1.582031.0683594c-1.230475.0455731-2.127276.2408836-2.69043.5859374-.563154.3450539-.844727.8886682-.844727 1.6308594 0 .5598987.170897.9895819.512696 1.2890625.341798.2994807.821937.4492188 1.44043.4492188zm11.80664-.0195313c.227866 0 .49479-.0227862.800781-.0683594.305991-.0455731.537109-.0976559.69336-.15625v1.3476563c-.162761.0716149-.415038.1416012-.756836.2099609-.341799.0683598-.688475.1025391-1.040039.1025391-2.096365 0-3.144532-1.1035046-3.144532-3.3105469v-6.2402344h-1.513671v-.8398437l1.533203-.703125.703125-2.2851563h1.044922v2.4609376h3.095703v1.3671874h-3.095703v6.1914063c0 .6184927.14811 1.0937483.444336 1.4257813.296225.3320329.708005.4980468 1.235351.4980468zm5.390625 1.2402344h-1.757812v-10.7226562h1.757812zm-1.894531-13.6230469c0-.3906269.099283-.6738272.297851-.8496093.198569-.1757822.444335-.2636719.737305-.2636719.273439 0 .512694.0878897.717774.2636719.205079.1757821.307617.4589824.307617.8496093 0 .3841165-.102538.6673168-.307617.8496094-.20508.1822926-.444335.2734375-.717774.2734375-.29297 0-.538736-.0911449-.737305-.2734375-.198568-.1822926-.297851-.4654929-.297851-.8496094zm7.65625 13.6230469-4.0625-10.7226562h1.884766l2.27539 6.3183593c.449221 1.2695376.735677 2.2167938.859375 2.8417969h.078125c.019531-.0846358.043945-.1806635.073242-.2880859s.063477-.2246088.102539-.3515625c.039063-.1269538.279946-.8609959.722657-2.2021485l2.285156-6.3183593h1.875l-4.072266 10.7226562zm12.353516.1953125c-1.608081 0-2.869462-.4866488-3.78418-1.4599609-.914718-.9733122-1.37207-2.312817-1.37207-4.0185547 0-1.7187586.426428-3.08756 1.279296-4.1064453.852869-1.0188853 2.005201-1.5283204 3.457032-1.5283204 1.347663 0 2.421871.434566 3.222656 1.303711s1.201172 2.045891 1.201172 3.5302734v1.0644532h-7.34375c.032552 1.217454.341794 2.1419239.927734 2.7734374.585941.6315136 1.41601.9472657 2.490234.9472657.57292 0 1.116534-.0504552 1.63086-.1513672.514325-.100912 1.116533-.2978501 1.80664-.5908203v1.5429687c-.59245.2539075-1.149085.4329422-1.669921.5371094s-1.136065.15625-1.845703.15625zm-.439454-9.6777344c-.839848 0-1.503903.2701796-1.992187.8105469s-.777994 1.2923129-.869141 2.2558594h5.458985c-.013021-1.0026092-.244139-1.7643203-.69336-2.2851563-.449221-.5208359-1.08398-.78125-1.904297-.78125z"/><path d="m237.541016 46h-1.816407l-2.783203-9.3554688c-.410158-1.3932361-.651041-2.3339819-.722656-2.8222656-.104167.7487017-.332029 1.7089785-.683594 2.8808594l-2.695312 9.296875h-1.816406l-3.779297-14.2773438h1.875l2.216797 8.7207032c.29948 1.1393286.527342 2.2721298.683593 3.3984375.14323-1.0677137.397134-2.2363218.761719-3.5058594l2.519531-8.6132813h1.855469l2.626953 8.6816407c.338543 1.1263077.598958 2.2721296.78125 3.4375.104167-.898442.335285-2.0377535.693359-3.4179688l2.207032-8.7011719h1.875zm14.570312 0-1.71875-4.4238281h-5.664062l-1.699219 4.4238281h-1.816406l5.576171-14.3359375h1.621094l5.566406 14.3359375zm-2.255859-6.015625-1.601563-4.3261719-.683594-2.1386719c-.195313.781254-.400389 1.4941375-.615234 2.1386719l-1.621094 4.3261719zm10.097656 6.015625h-5.15625v-1.0351562l1.679687-.3808594v-11.4257813l-1.679687-.4003906v-1.0351563h5.15625v1.0351563l-1.679687.4003906v11.4257813l1.679687.3808594z"/></g></g></g></svg>