<svg height="75" viewBox="0 0 110 75" width="110" xmlns="http://www.w3.org/2000/svg"><g fill="none" fill-rule="evenodd"><path d="m0 0h290v75h-290z" fill="#015a9c"/><g fill="#fff" fill-rule="nonzero" transform="translate(14 16)"><path d="m21.759911 0 7.7908193 26.78023 7.7908192-26.78023h5.6412079 15.4815308v2.6616102l-7.9531562 13.8524091c2.7935478.9068076 4.9066333 2.5549269 6.3392566 4.9443581 1.4326233 2.3907989 2.1496114 5.1960211 2.1496114 8.4184022 0 3.9855766-1.0484259 7.335157-3.143925 10.0501088-2.095499 2.7149518-4.8092312 4.0731116-8.1398436 4.0731116-2.5081054 0-4.6928897-.8055953-6.5543531-2.4167858-1.8628161-1.6111906-3.2413271-3.7927262-4.1368858-6.5459745l4.4047418-1.8464408c.6452892 1.6658999 1.4962052 2.9789244 2.552748 3.9377059 1.0565428.9601492 2.3011258 1.4388561 3.7337491 1.4388561 1.5043221 0 2.7759613-.8507305 3.8149176-2.5521915 1.0389562-1.7028287 1.5584344-3.7475909 1.5584344-6.1397575 0-2.6438297-.556004-4.6899596-1.6653062-6.1383898-1.2905785-1.701461-3.3143788-2.5535592-6.0727536-2.5535592h-2.1482585v-2.6069009l7.5216105-13.14665836h-9.0800449l-.5167726.88902704-11.0429688 37.67833382h-.5370646l-8.060028-27.268511-8.0586752 27.268511h-.5370646l-12.8922569-43.9972645h5.6412079l7.7908192 26.78023 5.2651274-18.03357162-2.5784514-8.74665838z"/><path d="m87.9881579 0c-1.0776316 0-2.0447368.38822175-2.7776316 1.1330811-.7776316.78960355-1.2105263 1.81082415-1.2105263 2.8662609s.4118421 2.03322915 1.1671053 2.8004606c.7671052.7777595 1.7552631 1.2001974 2.8223684 1.2001974 1.043421 0 2.0552631-.4224379 2.843421-1.18835335.7552632-.7330153 1.1671053-1.7108077 1.1671053-2.81098865 0-1.0672808-.4223684-2.06612929-1.1552632-2.81098865-.768421-.7790755-1.768421-1.18966935-2.8565789-1.18966935zm3.4776316 4.03355815c0 .92252015-.356579 1.777924-1.0105263 2.41092285-.6894737.667215-1.5447369 1.0225366-2.4894737 1.0225366-.8881579 0-1.7657895-.36584964-2.4210527-1.03306465-.6552631-.667215-1.0223684-1.52261885-1.0223684-2.43329495s.3776316-1.8002961 1.0552632-2.4885672c.6328947-.6448429 1.4881579-.98832044 2.4210526-.98832044.9552632 0 1.8105263.3566376 2.4776316 1.03306465.6447368.64352689.9894737 1.50945879.9894737 2.47672314zm-3.3671053-2.3780227h-1.7105263v4.5336404h.8552632v-1.9332127h.8447368l.9223684 1.9332127h.9552632l-1.0118421-2.0661293c.6552631-.1342326 1.0328947-.5777266 1.0328947-1.2225695 0-.8225037-.6210526-1.2449416-1.8881579-1.2449416zm-.1552631.5553545c.8 0 1.1657894.222405 1.1657894.7777595 0 .5329824-.3657894.72248725-1.1447368.72248725h-.7223684v-1.50024675z"/><path d="m82.1371237 0 .8628763 5.91408-3.051978 6.588s-1.1717758-2.79504-3.1183532-4.3416c-1.6402307-1.3032-2.7086145-1.58688-4.3794799-1.19808-2.1457027.49968-4.5786053 3.39408-5.6406069 6.9624-1.2700619 4.2696-1.2828264 6.336-1.3275019 8.23392-.0714809 3.04272.353575 4.84128.353575 4.84128s-1.8533969-3.86784-1.8355267-9.5328c.011488-4.04352.5756763-7.70976 2.2337773-11.32848 1.4589757-3.18096 3.6276544-5.0904 5.5525322-5.31504 1.9899765-.23184 3.5625557.8496 4.7777306 2.02032 1.2764441 1.22976 2.5656528 3.91824 2.5656528 3.91824z"/><path d="m82.2301013 31.8236212s-1.3384588 2.5673605-2.1716715 3.5567933c-.834479.9894327-2.3261577 2.7318129-4.1685962 3.603003s-2.8086107 1.0356425-4.6295225.8480852c-1.8196454-.1875573-3.5101302-1.3183375-4.1027496-1.789949s-2.1070912-1.8606229-2.963097-3.1558556c-.8560057-1.2952327-2.1944645-3.8856981-2.1944645-3.8856981s.7458394 2.5959019 1.213097 3.6981408c.2684515.6347048 1.0940665 2.5741561 2.2653762 4.2621718 1.0928003 1.5752096 3.2150869 4.2866359 6.4403039 4.8982358 3.2252171.612959 5.4412084-.9418639 5.989508-1.3183376s1.7044139-1.4161936 2.4363242-2.2561241c.7635673-.8766266 1.4866136-1.9951749 1.8867583-2.6665756.2925108-.48928.7686324-1.4841492.7686324-1.4841492z"/></g></g></svg>